<svg width="19" height="16" viewBox="0 0 19 16" fill="none" xmlns="http://www.w3.org/2000/svg">
<path d="M6.44452 1H18.1113V11.1112H6.44452V1Z" stroke="white" stroke-width="1.7" stroke-linecap="round" stroke-linejoin="round"/>
<path d="M6.44458 4.88904H3.33343L1.00007 7.2224V11.1113H6.44458V4.88904Z" stroke="white" stroke-width="1.7" stroke-linecap="round" stroke-linejoin="round"/>
<path d="M14.6114 15C13.5375 15 12.667 14.1295 12.667 13.0556C12.667 11.9817 13.5375 11.1111 14.6114 11.1111C15.6853 11.1111 16.5559 11.9817 16.5559 13.0556C16.5559 14.1295 15.6853 15 14.6114 15Z" stroke="white" stroke-width="1.7" stroke-linecap="round" stroke-linejoin="round"/>
<path d="M4.50011 15C3.42621 15 2.55564 14.1295 2.55564 13.0556C2.55564 11.9817 3.42621 11.1111 4.50011 11.1111C5.57401 11.1111 6.44458 11.9817 6.44458 13.0556C6.44458 14.1295 5.57401 15 4.50011 15Z" stroke="white" stroke-width="1.7" stroke-linecap="round" stroke-linejoin="round"/>
</svg>
