<svg width="15" height="14" viewBox="0 0 15 14" fill="none" xmlns="http://www.w3.org/2000/svg">
<path fill-rule="evenodd" clip-rule="evenodd" d="M0 1C0 0.447715 0.447715 0 1 0H13.7647C14.317 0 14.7647 0.447715 14.7647 1C14.7647 1.55228 14.317 2 13.7647 2H1C0.447715 2 0 1.55228 0 1ZM0 7C0 6.44772 0.447715 6 1 6H13.7647C14.317 6 14.7647 6.44772 14.7647 7C14.7647 7.55228 14.317 8 13.7647 8H1C0.447715 8 0 7.55228 0 7ZM1 12C0.447715 12 0 12.4477 0 13C0 13.5523 0.447715 14 1 14H13.7647C14.317 14 14.7647 13.5523 14.7647 13C14.7647 12.4477 14.317 12 13.7647 12H1Z" fill="#65727E"/>
</svg>
