<svg width="22" height="22" viewBox="0 0 22 22" fill="none" xmlns="http://www.w3.org/2000/svg">
<path d="M21.45 9.52599C21.4494 9.52548 21.4489 9.52481 21.4483 9.52431L12.4741 0.55037C12.0916 0.167679 11.583 -0.0429688 11.042 -0.0429688C10.501 -0.0429688 9.99246 0.167679 9.60977 0.55037L0.640191 9.51978C0.63717 9.5228 0.633981 9.52599 0.631127 9.52901C-0.154397 10.3191 -0.153054 11.6009 0.634988 12.389C0.995019 12.7492 1.47036 12.9576 1.97877 12.9796C1.99958 12.9816 2.0204 12.9826 2.04138 12.9826H2.39889V19.5867C2.39889 20.8938 3.46237 21.9571 4.76939 21.9571H8.28042C8.63642 21.9571 8.92495 21.6684 8.92495 21.3125V16.1348C8.92495 15.5384 9.4102 15.0534 10.0066 15.0534H12.0775C12.6738 15.0534 13.1589 15.5384 13.1589 16.1348V21.3125C13.1589 21.6684 13.4474 21.9571 13.8034 21.9571H17.3144C18.6216 21.9571 19.6849 20.8938 19.6849 19.5867V12.9826H20.0166C20.5574 12.9826 21.066 12.772 21.4489 12.3891C22.2377 11.5999 22.2381 10.3157 21.45 9.52599ZM20.5373 11.4777C20.3981 11.6169 20.2132 11.6936 20.0166 11.6936H19.0404C18.6844 11.6936 18.3959 11.9821 18.3959 12.3381V19.5867C18.3959 20.1829 17.9108 20.668 17.3144 20.668H14.448V16.1348C14.448 14.8278 13.3846 13.7643 12.0775 13.7643H10.0066C8.69936 13.7643 7.63589 14.8278 7.63589 16.1348V20.668H4.76939C4.1732 20.668 3.68796 20.1829 3.68796 19.5867V12.3381C3.68796 11.9821 3.39943 11.6936 3.04342 11.6936H2.08401C2.07394 11.6929 2.06404 11.6924 2.0538 11.6922C1.86178 11.6889 1.68168 11.6127 1.54673 11.4775C1.25971 11.1905 1.25971 10.7234 1.54673 10.4362C1.5469 10.4362 1.5469 10.4361 1.54707 10.4359L1.54757 10.4354L10.5215 1.46178C10.6605 1.32263 10.8453 1.2461 11.042 1.2461C11.2386 1.2461 11.4234 1.32263 11.5625 1.46178L20.5344 10.4335C20.5358 10.4349 20.5373 10.4362 20.5386 10.4376C20.8241 10.7251 20.8236 11.1912 20.5373 11.4777Z" fill="#000000"/>
</svg>
