<svg width="18" height="22" viewBox="0 0 18 22" fill="none" xmlns="http://www.w3.org/2000/svg">
<path d="M16.75 8.875C16.75 15 8.875 20.25 8.875 20.25C8.875 20.25 1 15 1 8.875C1 6.78642 1.82969 4.78338 3.30653 3.30653C4.78338 1.82968 6.78642 1 8.875 1C10.9636 1 12.9666 1.82968 14.4435 3.30653C15.9203 4.78338 16.75 6.78642 16.75 8.875Z" stroke="#C11239" stroke-width="2" stroke-linecap="round" stroke-linejoin="round"/>
<path d="M8.875 11.5C10.3247 11.5 11.5 10.3247 11.5 8.875C11.5 7.42525 10.3247 6.25 8.875 6.25C7.42525 6.25 6.25 7.42525 6.25 8.875C6.25 10.3247 7.42525 11.5 8.875 11.5Z" stroke="#C11239" stroke-width="2" stroke-linecap="round" stroke-linejoin="round"/>
</svg>
