<svg width="252" height="46" viewBox="0 0 252 46" fill="none" xmlns="http://www.w3.org/2000/svg">
<path d="M44.8029 23.4994V5.07589L56.0603 15.9097C56.367 16.2164 56.6777 16.5432 56.9924 16.8902C57.3071 17.2372 57.638 17.6286 57.985 18.0644V5.77797H60.6481V24.1894L49.1606 13.1619C48.8539 12.8633 48.5554 12.5486 48.2648 12.2177C47.9824 11.8869 47.7121 11.5399 47.4538 11.1767V23.4994H44.8029Z" fill="#C11239"/>
<path d="M64.8266 23.4994V5.77797H74.7162V8.22314H67.7075V12.6656H74.7162V15.1955H67.7075V20.9211H74.7162V23.4994H64.8266Z" fill="#C11239"/>
<path d="M76.0138 5.77797H78.8584L82.2114 14.7234C82.4293 15.3125 82.6109 15.829 82.7561 16.2729C82.9095 16.7167 83.0426 17.1323 83.1556 17.5197C83.4381 16.5835 83.7326 15.6676 84.0393 14.7719C84.0796 14.6589 84.1079 14.5822 84.124 14.5419L87.6828 5.07589L91.4353 14.7234C91.6128 15.1915 91.7783 15.6595 91.9316 16.1276C92.093 16.5956 92.2423 17.0677 92.3795 17.5439C92.4602 17.1807 92.5691 16.7813 92.7063 16.3455C92.8435 15.9097 93.021 15.3932 93.2389 14.7961L96.5678 5.77797H99.4366L92.5732 24.1894L88.5301 14.0819C88.3526 13.63 88.1912 13.1982 88.046 12.7867C87.9007 12.367 87.7716 11.9716 87.6586 11.6004C87.5214 12.0765 87.3842 12.5244 87.247 12.944C87.1098 13.3556 86.9686 13.751 86.8234 14.1303L82.853 24.1894L76.0138 5.77797Z" fill="#C11239"/>
<path d="M115.962 14.7476C115.93 14.6105 115.877 14.2312 115.805 13.6098C115.74 13.0933 115.684 12.6656 115.635 12.3267C115.563 12.7302 115.458 13.1337 115.32 13.5372C115.191 13.9407 115.026 14.3522 114.824 14.7719L110.188 24.2136L105.552 14.5782C105.358 14.1828 105.189 13.7994 105.043 13.4282C104.906 13.057 104.785 12.6898 104.68 12.3267C104.672 12.6979 104.64 13.0893 104.583 13.5008C104.535 13.9043 104.458 14.328 104.353 14.7719L102.453 23.4994H99.8021L103.99 5.02747L109.22 16.2123C109.3 16.3899 109.421 16.6844 109.583 17.096C109.752 17.5075 109.954 18.0159 110.188 18.6212C110.357 18.1128 110.624 17.4672 110.987 16.6844C111.084 16.4746 111.156 16.3132 111.205 16.2002L116.313 5.02747L120.598 23.4994H117.923L115.962 14.7476Z" fill="#C11239"/>
<path d="M126.75 16.5392H131.689L129.873 12.4961C129.768 12.2379 129.659 11.9434 129.546 11.6125C129.433 11.2736 129.32 10.8983 129.207 10.4867C129.11 10.8741 129.005 11.2372 128.892 11.5762C128.787 11.907 128.678 12.2137 128.565 12.4961L126.75 16.5392ZM134.715 23.4994L132.705 18.9359H125.685L123.627 23.4994H120.6L129.183 5.07589L137.753 23.4994H134.715Z" fill="#C11239"/>
<path d="M142.404 13.3314H142.924C144.449 13.3314 145.462 13.1538 145.962 12.7988C146.463 12.4437 146.713 11.8142 146.713 10.9104C146.713 9.93396 146.443 9.24802 145.902 8.85259C145.369 8.4491 144.377 8.24735 142.924 8.24735H142.404V13.3314ZM142.222 15.5708V23.4994H139.523V5.77797H143.541C144.72 5.77797 145.632 5.85463 146.277 6.00796C146.931 6.16128 147.488 6.41549 147.948 6.77056C148.496 7.19827 148.92 7.75105 149.219 8.42892C149.517 9.10679 149.667 9.84922 149.667 10.6562C149.667 12.0765 149.324 13.1902 148.638 13.9971C147.952 14.7961 146.939 15.2762 145.599 15.4376L151.7 23.4994H148.444L142.549 15.5708H142.222Z" fill="#C11239"/>
<path d="M153.518 23.4994V5.77797H156.399V13.1135L162.766 5.77797H166.289L159.268 13.6582L167.124 23.4994H163.408L156.399 14.445V23.4994H153.518Z" fill="#C11239"/>
<path d="M168.99 23.4994V5.77797H178.88V8.22314H171.871V12.6656H178.88V15.1955H171.871V20.9211H178.88V23.4994H168.99Z" fill="#C11239"/>
<path d="M188.009 8.22314V23.4994H185.129V8.22314H180.42V5.77797H192.694V8.22314H188.009Z" fill="#C11239"/>
<path d="M194.996 23.4994V5.77797H197.877V13.1135L204.244 5.77797H207.767L200.746 13.6582L208.602 23.4994H204.886L197.877 14.445V23.4994H194.996Z" fill="#C11239"/>
<path d="M214.209 16.5392H219.148L217.332 12.4961C217.227 12.2379 217.118 11.9434 217.005 11.6125C216.892 11.2736 216.779 10.8983 216.666 10.4867C216.569 10.8741 216.465 11.2372 216.352 11.5762C216.247 11.907 216.138 12.2137 216.025 12.4961L214.209 16.5392ZM222.174 23.4994L220.165 18.9359H213.144L211.086 23.4994H208.06L216.642 5.07589L225.212 23.4994H222.174Z" fill="#C11239"/>
<path d="M229.863 13.3314H230.383C231.909 13.3314 232.921 13.1538 233.422 12.7988C233.922 12.4437 234.172 11.8142 234.172 10.9104C234.172 9.93396 233.902 9.24802 233.361 8.85259C232.829 8.4491 231.836 8.24735 230.383 8.24735H229.863V13.3314ZM229.681 15.5708V23.4994H226.982V5.77797H231.001C232.179 5.77797 233.091 5.85463 233.736 6.00796C234.39 6.16128 234.947 6.41549 235.407 6.77056C235.956 7.19827 236.379 7.75105 236.678 8.42892C236.976 9.10679 237.126 9.84922 237.126 10.6562C237.126 12.0765 236.783 13.1902 236.097 13.9971C235.411 14.7961 234.398 15.2762 233.059 15.4376L239.159 23.4994H235.903L230.008 15.5708H229.681Z" fill="#C11239"/>
<path d="M246.703 8.22314V23.4994H243.822V8.22314H239.113V5.77797H251.388V8.22314H246.703Z" fill="#C11239"/>
<path d="M40.9132 39.9688H43.4991L43.5677 39.6598C43.2397 39.6522 43.0033 39.6179 42.8583 39.5568C42.7134 39.4882 42.6409 39.3776 42.6409 39.225C42.6409 39.1411 42.6676 39.0343 42.721 38.9047C42.782 38.775 42.8507 38.6453 42.927 38.5156L43.4647 37.6689H46.3366L46.554 38.6644C46.5846 38.7864 46.5998 38.9085 46.5998 39.0305C46.5998 39.2594 46.5235 39.4195 46.371 39.5111C46.2184 39.6026 45.9591 39.6522 45.5929 39.6598L45.5243 39.9688H49.4603L49.5175 39.6598C49.3192 39.6522 49.159 39.6331 49.0369 39.6026C48.9225 39.5721 48.831 39.5225 48.7623 39.4539C48.6937 39.3776 48.6326 39.2708 48.5793 39.1335C48.5259 38.9886 48.4686 38.7826 48.4076 38.5156L46.8744 31.8679H46.5769L42.0688 38.939C41.8934 39.206 41.7256 39.3928 41.5654 39.4996C41.4052 39.5988 41.2107 39.6522 40.9819 39.6598L40.9132 39.9688ZM46.2337 37.1655H43.7508L45.6044 34.2478L46.2337 37.1655Z" fill="#C11239"/>
<path d="M51.9812 32.1997C52.2481 32.2074 52.4198 32.2264 52.496 32.2569C52.5723 32.2875 52.6105 32.3561 52.6105 32.4629C52.6105 32.5392 52.6028 32.6231 52.5876 32.7146C52.5723 32.8062 52.5418 32.932 52.496 33.0922L50.9972 38.6529C50.9285 38.8894 50.8942 39.1068 50.8942 39.3051C50.8942 39.8467 51.1535 40.1175 51.6722 40.1175C52.0231 40.1175 52.332 39.9916 52.599 39.7399C52.866 39.4882 53.1482 39.1411 53.4457 38.6987L53.5487 38.5614L53.3084 38.4012C53.3084 38.4012 53.2855 38.4394 53.2398 38.5156C53.1177 38.6987 53.0071 38.8513 52.9079 38.9733C52.8088 39.0877 52.7172 39.1449 52.6333 39.1449C52.5037 39.1449 52.4388 39.0839 52.4388 38.9619C52.4388 38.9314 52.4655 38.8246 52.5189 38.6415C52.5418 38.5423 52.5647 38.4584 52.5876 38.3898L54.4412 31.6963L54.3153 31.5475C54.0407 31.662 53.7394 31.7421 53.4114 31.7878C53.0834 31.826 52.6791 31.8565 52.1985 31.8794L52.0384 31.8908L51.9812 32.1997Z" fill="#C11239"/>
<path d="M55.8371 32.1997C56.1041 32.2074 56.2758 32.2264 56.352 32.2569C56.4283 32.2875 56.4664 32.3561 56.4664 32.4629C56.4664 32.5392 56.4588 32.6231 56.4436 32.7146C56.4283 32.8062 56.3978 32.932 56.352 33.0922L54.8531 38.6529C54.7845 38.8894 54.7502 39.1068 54.7502 39.3051C54.7502 39.8467 55.0095 40.1175 55.5282 40.1175C55.8791 40.1175 56.188 39.9916 56.455 39.7399C56.722 39.4882 57.0042 39.1411 57.3017 38.6987L57.4047 38.5614L57.1644 38.4012C57.1644 38.4012 57.1415 38.4394 57.0958 38.5156C56.9737 38.6987 56.8631 38.8513 56.7639 38.9733C56.6648 39.0877 56.5732 39.1449 56.4893 39.1449C56.3597 39.1449 56.2948 39.0839 56.2948 38.9619C56.2948 38.9314 56.3215 38.8246 56.3749 38.6415C56.3978 38.5423 56.4207 38.4584 56.4436 38.3898L58.2971 31.6963L58.1713 31.5475C57.8967 31.662 57.5954 31.7421 57.2674 31.7878C56.9394 31.826 56.5351 31.8565 56.0545 31.8794L55.8944 31.8908L55.8371 32.1997Z" fill="#C11239"/>
<path d="M60.8639 39.9688H64.6969L64.7655 39.6598C64.4757 39.6522 64.2659 39.6102 64.1362 39.534C64.0066 39.4577 63.9417 39.3242 63.9417 39.1335C63.9417 39.0267 63.9646 38.8932 64.0104 38.733L64.7655 36.0442H67.6375L66.7908 39.0648C66.7297 39.2937 66.6153 39.4501 66.4475 39.534C66.2873 39.6102 66.0585 39.6522 65.761 39.6598L65.6923 39.9688H69.5368L69.6055 39.6598C69.3003 39.6522 69.0829 39.6179 68.9533 39.5568C68.8236 39.4958 68.7588 39.3776 68.7588 39.2021C68.7588 39.0725 68.7855 38.9161 68.8389 38.733L70.4064 33.138C70.4903 32.8328 70.6085 32.6345 70.7611 32.543C70.9213 32.4438 71.1577 32.3904 71.4705 32.3828L71.5391 32.0739H67.729L67.6718 32.3828C67.9769 32.3904 68.1867 32.4248 68.3011 32.4858C68.4231 32.5468 68.4842 32.6688 68.4842 32.8519C68.4842 32.9892 68.4613 33.1418 68.4155 33.3096L67.7748 35.5408H64.9143L65.6351 32.9778C65.6962 32.7489 65.8068 32.5964 65.9669 32.5201C66.1348 32.4362 66.3598 32.3904 66.642 32.3828L66.7107 32.0739H62.9234L62.8548 32.3828C63.1522 32.3904 63.362 32.4248 63.4841 32.4858C63.6061 32.5468 63.6671 32.665 63.6671 32.8405C63.6671 32.9702 63.6404 33.1265 63.587 33.3096L61.9623 39.0648C61.9013 39.2937 61.7869 39.4501 61.619 39.534C61.4589 39.6102 61.23 39.6522 60.9325 39.6598L60.8639 39.9688Z" fill="#C11239"/>
<path d="M71.2761 38.3097C71.2761 38.9047 71.4591 39.3547 71.8253 39.6598C72.1914 39.9649 72.6948 40.1175 73.3356 40.1175C73.7628 40.1175 74.1899 40.0107 74.6171 39.7971C75.0442 39.5835 75.4295 39.2975 75.7727 38.939C76.1236 38.5728 76.3982 38.1724 76.5965 37.7376C76.7948 37.3028 76.894 36.8718 76.894 36.4447C76.894 35.8497 76.7148 35.3768 76.3562 35.0259C76.0054 34.6674 75.5362 34.4881 74.9489 34.4881C74.4455 34.4881 73.9687 34.5949 73.5187 34.8085C73.0686 35.0144 72.6758 35.3005 72.3402 35.6666C72.0045 36.0251 71.7414 36.4332 71.5507 36.8909C71.3676 37.3486 71.2761 37.8215 71.2761 38.3097ZM72.8207 38.9161C72.8207 38.7407 72.8703 38.4317 72.9695 37.9893C73.0686 37.5393 73.2021 37.0702 73.3699 36.582C73.5454 36.0938 73.7437 35.6857 73.9649 35.3577C74.1937 35.0221 74.434 34.8542 74.6857 34.8542C74.8764 34.8542 75.0328 34.9229 75.1548 35.0602C75.2845 35.1899 75.3494 35.4111 75.3494 35.7238C75.3494 35.9374 75.296 36.2692 75.1892 36.7193C75.09 37.1617 74.9527 37.6155 74.7773 38.0808C74.6095 38.5461 74.4111 38.9428 74.1823 39.2708C73.9535 39.5912 73.7208 39.7514 73.4843 39.7514C73.0419 39.7514 72.8207 39.4729 72.8207 38.9161Z" fill="#C11239"/>
<path d="M77.508 39.9688H79.0527L79.7049 37.6804C79.7888 37.3829 79.8917 37.1007 80.0138 36.8337C80.1435 36.5591 80.2808 36.3188 80.4257 36.1128C80.5706 35.9069 80.7194 35.7467 80.8719 35.6323C81.0245 35.5179 81.1656 35.4607 81.2953 35.4607C81.4707 35.4607 81.5584 35.5636 81.5584 35.7696C81.5584 35.884 81.5432 36.0022 81.5127 36.1243L80.46 39.9688H82.0047L82.5424 38.0236C82.7637 37.2303 83.0268 36.6048 83.3319 36.1472C83.637 35.6895 83.9498 35.4607 84.2702 35.4607C84.4075 35.4607 84.4761 35.5408 84.4761 35.7009C84.4761 35.8001 84.4532 35.9298 84.4075 36.09L83.7438 38.4584C83.6523 38.7864 83.6065 39.0687 83.6065 39.3051C83.6065 39.5797 83.6637 39.7857 83.7782 39.923C83.8926 40.0527 84.0566 40.1175 84.2702 40.1175C84.4837 40.1175 84.6897 40.0679 84.888 39.9688C85.094 39.862 85.2809 39.7285 85.4487 39.5683C85.6241 39.4081 85.7767 39.2441 85.9064 39.0763C86.036 38.9008 86.1504 38.7292 86.2496 38.5614L86.0093 38.4012L85.975 38.4584C85.853 38.6491 85.7347 38.8131 85.6203 38.9504C85.5059 39.0801 85.3953 39.1449 85.2885 39.1449C85.197 39.1449 85.1512 39.0648 85.1512 38.9047C85.1512 38.8436 85.1664 38.7445 85.197 38.6072L85.9521 35.8039C85.9979 35.6208 86.0208 35.4607 86.0208 35.3234C86.0208 35.0564 85.9445 34.8504 85.7919 34.7055C85.647 34.5606 85.4449 34.4881 85.1855 34.4881C84.9643 34.4881 84.7431 34.5377 84.5219 34.6368C84.3083 34.736 84.1024 34.8657 83.904 35.0259C83.7133 35.1861 83.5417 35.3577 83.3891 35.5408C83.2442 35.7162 83.1183 35.8878 83.0116 36.0556H82.9887C83.0192 35.9641 83.0459 35.8688 83.0688 35.7696C83.0917 35.6628 83.1031 35.5827 83.1031 35.5293C83.1031 35.1632 83.0344 34.9 82.8971 34.7398C82.7675 34.572 82.5386 34.4881 82.2106 34.4881C81.9742 34.4881 81.7415 34.5453 81.5127 34.6597C81.2915 34.7665 81.0817 34.9115 80.8834 35.0945C80.685 35.2776 80.5058 35.4721 80.3456 35.6781C80.193 35.884 80.0634 36.09 79.9566 36.2959H79.9337L80.4143 34.6254L80.2998 34.4881C80.0405 34.5949 79.6972 34.675 79.2701 34.7284C78.8505 34.7818 78.4501 34.8085 78.0687 34.8085L77.9886 35.1174C78.2861 35.1174 78.4806 35.1327 78.5721 35.1632C78.6713 35.1937 78.7209 35.2738 78.7209 35.4035C78.7209 35.5713 78.6865 35.7734 78.6179 36.0099L77.508 39.9688Z" fill="#C11239"/>
<path d="M90.712 35.3005C90.712 35.4759 90.6624 35.6704 90.5633 35.884C90.4641 36.09 90.3344 36.2883 90.1743 36.479C90.0141 36.6697 89.831 36.8299 89.625 36.9595C89.4267 37.0892 89.2284 37.1655 89.0301 37.1884C89.0529 37.0511 89.1063 36.8489 89.1903 36.582C89.2818 36.315 89.3924 36.0518 89.5221 35.7925C89.6517 35.5255 89.7929 35.3043 89.9454 35.1288C90.098 34.9458 90.2505 34.8542 90.4031 34.8542C90.609 34.8542 90.712 35.003 90.712 35.3005ZM91.2155 38.5156C90.9637 38.7597 90.7082 38.9542 90.4489 39.0992C90.1971 39.2441 89.9302 39.3166 89.6479 39.3166C89.3352 39.3166 89.114 39.2403 88.9843 39.0877C88.8622 38.9352 88.8012 38.7635 88.8012 38.5728C88.8012 38.4279 88.8203 38.2563 88.8584 38.058C88.8966 37.8596 88.9309 37.7109 88.9614 37.6117C89.2818 37.5507 89.606 37.4744 89.934 37.3829C90.2696 37.2837 90.5938 37.1502 90.9065 36.9824C91.2269 36.8146 91.4863 36.6087 91.6846 36.3646C91.8905 36.1128 91.9935 35.823 91.9935 35.495C91.9935 35.1746 91.8829 34.9267 91.6617 34.7513C91.4481 34.5758 91.1773 34.4881 90.8493 34.4881C90.3993 34.4881 89.9569 34.5949 89.5221 34.8085C89.0873 35.0221 88.6983 35.3081 88.355 35.6666C88.0194 36.0251 87.7524 36.4294 87.5541 36.8795C87.3557 37.3219 87.2566 37.7681 87.2566 38.2181C87.2566 38.7902 87.4091 39.2517 87.7143 39.6026C88.0194 39.9459 88.4542 40.1175 89.0186 40.1175C89.4916 40.1175 89.9149 39.9993 90.2887 39.7628C90.6624 39.5263 91.0476 39.1945 91.4443 38.7674L91.2155 38.5156Z" fill="#C11239"/>
<path d="M95.0446 40.1747H95.3535C95.4069 40.0145 95.4679 39.8925 95.5366 39.8086C95.6052 39.717 95.6967 39.6713 95.8112 39.6713C95.9332 39.6713 96.1468 39.7247 96.4519 39.8315C96.7418 39.9382 97.0126 40.0221 97.2643 40.0832C97.5236 40.1442 97.8249 40.1747 98.1682 40.1747C98.5419 40.1747 98.8928 40.1213 99.2208 40.0145C99.5565 39.9077 99.8463 39.7552 100.09 39.5568C100.64 39.1068 100.914 38.5004 100.914 37.7376C100.914 37.2799 100.796 36.868 100.56 36.5019C100.323 36.1357 99.9874 35.7429 99.5526 35.3234C99.4687 35.2395 99.4039 35.1746 99.3581 35.1288C98.9615 34.7475 98.664 34.4271 98.4657 34.1677C98.275 33.9008 98.1796 33.6147 98.1796 33.3096C98.1796 32.9816 98.2902 32.7299 98.5114 32.5544C98.7326 32.379 99.0149 32.2913 99.3581 32.2913C99.8539 32.2913 100.243 32.4667 100.525 32.8176C100.807 33.1608 100.949 33.5804 100.949 34.0762C100.949 34.1754 100.945 34.2478 100.937 34.2936H101.257L101.749 31.8679H101.441C101.41 31.9976 101.349 32.0891 101.257 32.1425C101.174 32.1883 101.067 32.2112 100.937 32.2112C100.891 32.2112 100.769 32.1845 100.571 32.1311C100.426 32.0929 100.308 32.0624 100.216 32.0395C99.8044 31.9251 99.3696 31.8679 98.9119 31.8679C98.1567 31.8679 97.5503 32.0662 97.0926 32.4629C96.635 32.8595 96.4061 33.4164 96.4061 34.1334C96.4061 34.5148 96.5244 34.8771 96.7608 35.2204C96.9973 35.556 97.3367 35.945 97.7792 36.3875L97.8936 36.5019C98.3131 36.929 98.6259 37.2837 98.8318 37.566C99.0378 37.8482 99.1407 38.1419 99.1407 38.447C99.1407 38.8436 99.0111 39.1602 98.7517 39.3967C98.5 39.6331 98.1834 39.7514 97.802 39.7514C97.2299 39.7514 96.7685 39.553 96.4176 39.1564C96.0743 38.7597 95.9027 38.2372 95.9027 37.5888H95.5938L95.0446 40.1747Z" fill="#C11239"/>
<path d="M102.02 38.3097C102.02 38.9047 102.203 39.3547 102.569 39.6598C102.936 39.9649 103.439 40.1175 104.08 40.1175C104.507 40.1175 104.934 40.0107 105.361 39.7971C105.788 39.5835 106.174 39.2975 106.517 38.939C106.868 38.5728 107.142 38.1724 107.341 37.7376C107.539 37.3028 107.638 36.8718 107.638 36.4447C107.638 35.8497 107.459 35.3768 107.1 35.0259C106.75 34.6674 106.28 34.4881 105.693 34.4881C105.19 34.4881 104.713 34.5949 104.263 34.8085C103.813 35.0144 103.42 35.3005 103.084 35.6666C102.749 36.0251 102.486 36.4332 102.295 36.8909C102.112 37.3486 102.02 37.8215 102.02 38.3097ZM103.565 38.9161C103.565 38.7407 103.614 38.4317 103.714 37.9893C103.813 37.5393 103.946 37.0702 104.114 36.582C104.29 36.0938 104.488 35.6857 104.709 35.3577C104.938 35.0221 105.178 34.8542 105.43 34.8542C105.621 34.8542 105.777 34.9229 105.899 35.0602C106.029 35.1899 106.094 35.4111 106.094 35.7238C106.094 35.9374 106.04 36.2692 105.933 36.7193C105.834 37.1617 105.697 37.6155 105.521 38.0808C105.354 38.5461 105.155 38.9428 104.926 39.2708C104.698 39.5912 104.465 39.7514 104.229 39.7514C103.786 39.7514 103.565 39.4729 103.565 38.9161Z" fill="#C11239"/>
<path d="M109.648 32.1997C109.915 32.2074 110.087 32.2264 110.163 32.2569C110.239 32.2875 110.277 32.3561 110.277 32.4629C110.277 32.5392 110.27 32.6231 110.255 32.7146C110.239 32.8062 110.209 32.932 110.163 33.0922L108.664 38.6529C108.595 38.8894 108.561 39.1068 108.561 39.3051C108.561 39.8467 108.82 40.1175 109.339 40.1175C109.69 40.1175 109.999 39.9916 110.266 39.7399C110.533 39.4882 110.815 39.1411 111.113 38.6987L111.216 38.5614L110.975 38.4012C110.975 38.4012 110.952 38.4394 110.907 38.5156C110.785 38.6987 110.674 38.8513 110.575 38.9733C110.476 39.0877 110.384 39.1449 110.3 39.1449C110.171 39.1449 110.106 39.0839 110.106 38.9619C110.106 38.9314 110.132 38.8246 110.186 38.6415C110.209 38.5423 110.232 38.4584 110.255 38.3898L112.108 31.6963L111.982 31.5475C111.708 31.662 111.406 31.7421 111.078 31.7878C110.75 31.826 110.346 31.8565 109.866 31.8794L109.705 31.8908L109.648 32.1997Z" fill="#C11239"/>
<path d="M118.012 34.6368H116.468L115.884 36.7078C115.67 37.4554 115.392 38.0503 115.049 38.4928C114.706 38.9275 114.393 39.1449 114.111 39.1449C113.958 39.1449 113.882 39.0648 113.882 38.9047C113.882 38.8513 113.889 38.7712 113.905 38.6644C113.927 38.55 113.947 38.4622 113.962 38.4012L115.026 34.614L114.9 34.4881C114.542 34.6025 114.172 34.6864 113.79 34.7398C113.416 34.7856 113.035 34.8085 112.646 34.8085L112.589 35.1174C112.848 35.1174 113.02 35.1327 113.104 35.1632C113.188 35.1937 113.23 35.2776 113.23 35.4149C113.23 35.5141 113.218 35.6208 113.195 35.7353C113.172 35.8497 113.149 35.9527 113.127 36.0442L112.44 38.4241C112.371 38.6835 112.337 38.9161 112.337 39.1221C112.337 39.4348 112.41 39.6789 112.554 39.8543C112.707 40.0298 112.924 40.1175 113.207 40.1175C113.428 40.1175 113.645 40.0717 113.859 39.9802C114.072 39.8887 114.267 39.7666 114.442 39.6141C114.625 39.4615 114.793 39.2937 114.946 39.1106C115.106 38.9275 115.243 38.7407 115.358 38.55L115.381 38.5728C115.365 38.6262 115.346 38.7025 115.323 38.8017C115.255 39.061 115.22 39.2632 115.22 39.4081C115.22 39.6141 115.274 39.7857 115.381 39.923C115.487 40.0527 115.674 40.1175 115.941 40.1175C116.3 40.1175 116.609 40.0031 116.868 39.7742C117.127 39.5454 117.413 39.2212 117.726 38.8017C117.772 38.7407 117.818 38.6796 117.863 38.6186L117.623 38.4355C117.616 38.4432 117.596 38.4699 117.566 38.5156C117.444 38.6987 117.33 38.8513 117.223 38.9733C117.116 39.0877 117.013 39.1449 116.914 39.1449C116.815 39.1449 116.765 39.0839 116.765 38.9619C116.765 38.9085 116.784 38.8131 116.822 38.6758L118.012 34.6368Z" fill="#C11239"/>
<path d="M122.494 34.6368H121.521L121.899 33.2181H121.647C121.349 33.6071 121.002 33.9389 120.606 34.2135C120.209 34.4881 119.782 34.6674 119.324 34.7513L119.278 35.0602H119.862L118.935 38.6186L118.924 38.6873C118.863 38.939 118.832 39.1602 118.832 39.3509C118.832 39.595 118.897 39.7857 119.027 39.923C119.156 40.0527 119.317 40.1175 119.507 40.1175C119.889 40.1175 120.232 39.9955 120.537 39.7514C120.85 39.4996 121.178 39.103 121.521 38.5614L121.281 38.4012C121.159 38.6072 121.029 38.7826 120.892 38.9275C120.762 39.0725 120.655 39.1449 120.571 39.1449C120.442 39.1449 120.377 39.0687 120.377 38.9161C120.377 38.8246 120.419 38.6262 120.503 38.3211L121.407 35.0602H122.425L122.494 34.6368Z" fill="#C11239"/>
<path d="M125.526 34.6368L125.411 34.4881C125.152 34.5949 124.805 34.675 124.37 34.7284C123.935 34.7818 123.501 34.8085 123.066 34.8085L123.009 35.1174H123.077C123.329 35.1403 123.493 35.167 123.569 35.1975C123.645 35.2204 123.684 35.2814 123.684 35.3806C123.684 35.4416 123.672 35.5408 123.649 35.6781C123.626 35.8077 123.6 35.9183 123.569 36.0099L122.871 38.447C122.764 38.836 122.711 39.1411 122.711 39.3623C122.711 39.6217 122.768 39.8124 122.883 39.9344C122.997 40.0565 123.165 40.1175 123.386 40.1175C123.607 40.1175 123.813 40.0717 124.004 39.9802C124.195 39.8887 124.366 39.7704 124.519 39.6255C124.679 39.4806 124.82 39.3242 124.942 39.1564C125.072 38.9886 125.209 38.7941 125.354 38.5728L125.114 38.4241C125.083 38.4699 125.06 38.5004 125.045 38.5156C124.916 38.7063 124.797 38.8589 124.69 38.9733C124.584 39.0877 124.477 39.1449 124.37 39.1449C124.294 39.1449 124.256 39.0992 124.256 39.0076C124.256 38.9771 124.263 38.9314 124.279 38.8703L125.526 34.6368ZM124.21 32.9549C124.21 33.199 124.294 33.4088 124.462 33.5842C124.637 33.7596 124.847 33.8474 125.091 33.8474C125.335 33.8474 125.545 33.7596 125.72 33.5842C125.896 33.4088 125.983 33.199 125.983 32.9549C125.983 32.7108 125.896 32.5048 125.72 32.337C125.545 32.1616 125.335 32.0739 125.091 32.0739C124.847 32.0739 124.637 32.1616 124.462 32.337C124.294 32.5048 124.21 32.7108 124.21 32.9549Z" fill="#C11239"/>
<path d="M126.395 38.3097C126.395 38.9047 126.578 39.3547 126.945 39.6598C127.311 39.9649 127.814 40.1175 128.455 40.1175C128.882 40.1175 129.309 40.0107 129.736 39.7971C130.164 39.5835 130.549 39.2975 130.892 38.939C131.243 38.5728 131.518 38.1724 131.716 37.7376C131.914 37.3028 132.013 36.8718 132.013 36.4447C132.013 35.8497 131.834 35.3768 131.476 35.0259C131.125 34.6674 130.656 34.4881 130.068 34.4881C129.565 34.4881 129.088 34.5949 128.638 34.8085C128.188 35.0144 127.795 35.3005 127.46 35.6666C127.124 36.0251 126.861 36.4332 126.67 36.8909C126.487 37.3486 126.395 37.8215 126.395 38.3097ZM127.94 38.9161C127.94 38.7407 127.99 38.4317 128.089 37.9893C128.188 37.5393 128.321 37.0702 128.489 36.582C128.665 36.0938 128.863 35.6857 129.084 35.3577C129.313 35.0221 129.553 34.8542 129.805 34.8542C129.996 34.8542 130.152 34.9229 130.274 35.0602C130.404 35.1899 130.469 35.4111 130.469 35.7238C130.469 35.9374 130.415 36.2692 130.309 36.7193C130.209 37.1617 130.072 37.6155 129.897 38.0808C129.729 38.5461 129.53 38.9428 129.302 39.2708C129.073 39.5912 128.84 39.7514 128.604 39.7514C128.161 39.7514 127.94 39.4729 127.94 38.9161Z" fill="#C11239"/>
<path d="M132.536 39.9688H134.092L134.618 38.0923C134.687 37.8406 134.778 37.5621 134.893 37.257C135.007 36.9519 135.137 36.6659 135.282 36.3989C135.434 36.1243 135.598 35.8993 135.774 35.7238C135.949 35.5484 136.129 35.4607 136.312 35.4607C136.403 35.4607 136.472 35.4835 136.518 35.5293C136.571 35.5751 136.598 35.6514 136.598 35.7582C136.598 35.8421 136.575 35.9603 136.529 36.1128L135.9 38.2868C135.831 38.5233 135.778 38.7254 135.74 38.8932C135.709 39.061 135.694 39.1983 135.694 39.3051C135.694 39.5645 135.755 39.7666 135.877 39.9115C135.999 40.0488 136.163 40.1175 136.369 40.1175C136.735 40.1175 137.048 40.0031 137.307 39.7742C137.566 39.5454 137.853 39.2212 138.165 38.8017C138.242 38.6873 138.295 38.611 138.325 38.5728L138.085 38.4012C138.085 38.4012 138.085 38.405 138.085 38.4127C138.032 38.4889 137.978 38.5614 137.925 38.6301C137.879 38.6987 137.818 38.775 137.742 38.8589C137.673 38.9428 137.605 39.0115 137.536 39.0648C137.467 39.1182 137.406 39.1449 137.353 39.1449C137.277 39.1449 137.238 39.0877 137.238 38.9733C137.238 38.897 137.258 38.7826 137.296 38.6301L138.017 36.1815C138.047 36.0976 138.074 35.9832 138.097 35.8382C138.127 35.6933 138.142 35.5789 138.142 35.495C138.142 35.2051 138.055 34.9648 137.879 34.7742C137.704 34.5835 137.475 34.4881 137.193 34.4881C136.766 34.4881 136.331 34.6788 135.888 35.0602C135.454 35.4416 135.076 35.9641 134.756 36.6277L134.733 36.6048L135.351 34.614L135.236 34.4881C134.977 34.5949 134.637 34.675 134.218 34.7284C133.798 34.7818 133.405 34.8085 133.039 34.8085L132.982 35.1174C133.241 35.1174 133.417 35.1327 133.508 35.1632C133.6 35.1937 133.646 35.27 133.646 35.392C133.646 35.4683 133.638 35.5675 133.623 35.6895C133.608 35.8039 133.585 35.9107 133.554 36.0099L132.536 39.9688Z" fill="#C11239"/>
<path d="M138.653 39.9688L138.962 40.026C139.016 39.8429 139.119 39.7514 139.271 39.7514C139.386 39.7514 139.553 39.7971 139.775 39.8887C139.943 39.9649 140.099 40.0221 140.244 40.0603C140.389 40.0984 140.557 40.1175 140.747 40.1175C141.281 40.1175 141.72 39.9649 142.063 39.6598C142.406 39.3471 142.578 38.9352 142.578 38.4241C142.578 38.1342 142.505 37.8596 142.361 37.6003C142.223 37.3333 142.029 37.0511 141.777 36.7536L141.583 36.5248C141.377 36.2807 141.224 36.0862 141.125 35.9412C141.026 35.7963 140.976 35.6552 140.976 35.5179C140.976 35.3272 141.029 35.1708 141.136 35.0488C141.243 34.9191 141.388 34.8542 141.571 34.8542C141.747 34.8542 141.895 34.8962 142.017 34.9801C142.147 35.0564 142.25 35.1594 142.326 35.289C142.403 35.4187 142.46 35.5598 142.498 35.7124C142.536 35.8649 142.563 36.0289 142.578 36.2044L142.887 36.2616L143.23 34.4881H142.921C142.853 34.7093 142.746 34.8199 142.601 34.8199C142.563 34.8199 142.479 34.7932 142.349 34.7398C142.174 34.6635 142.006 34.6025 141.846 34.5568C141.685 34.511 141.502 34.4881 141.296 34.4881C140.778 34.4881 140.358 34.6254 140.038 34.9C139.717 35.167 139.557 35.5484 139.557 36.0442C139.557 36.3112 139.626 36.5705 139.763 36.8222C139.908 37.0663 140.107 37.3409 140.358 37.6461C140.381 37.6766 140.419 37.7185 140.473 37.7719C140.701 38.0541 140.873 38.283 140.988 38.4584C141.102 38.6339 141.159 38.8055 141.159 38.9733C141.159 39.164 141.087 39.3204 140.942 39.4424C140.804 39.5568 140.633 39.6141 140.427 39.6141C140.061 39.6141 139.782 39.4691 139.592 39.1793C139.401 38.8818 139.306 38.5461 139.306 38.1724L138.997 38.1037L138.653 39.9688Z" fill="#C11239"/>
<path d="M156.182 32.0739H153.745L153.676 32.3828C153.989 32.3904 154.21 32.4286 154.34 32.4972C154.477 32.5582 154.546 32.6917 154.546 32.8977C154.546 32.974 154.527 33.0884 154.489 33.2409L153.402 37.1426C153.31 37.4706 153.196 37.7757 153.059 38.058C152.921 38.3326 152.754 38.5843 152.555 38.8131C152.357 39.0343 152.12 39.2098 151.846 39.3395C151.579 39.4615 151.281 39.5225 150.953 39.5225C150.48 39.5225 150.091 39.431 149.786 39.2479C149.481 39.0572 149.329 38.7445 149.329 38.3097C149.329 38.1724 149.355 37.9702 149.409 37.7033L150.599 33.3096C150.69 32.9358 150.808 32.6917 150.953 32.5773C151.098 32.4553 151.365 32.3904 151.754 32.3828L151.823 32.0739H148.024L147.956 32.3828C148.223 32.3904 148.417 32.4248 148.539 32.4858C148.669 32.5392 148.734 32.6536 148.734 32.829C148.734 32.9435 148.707 33.0808 148.654 33.2409C148.646 33.2791 148.638 33.3096 148.631 33.3325L147.555 37.3715C147.486 37.6308 147.452 37.8901 147.452 38.1495C147.452 38.5004 147.536 38.8055 147.704 39.0648C147.872 39.3242 148.093 39.5378 148.367 39.7056C148.65 39.8658 148.955 39.984 149.283 40.0603C149.611 40.1366 149.943 40.1747 150.278 40.1747C151.308 40.1747 152.094 39.9382 152.635 39.4653C153.184 38.9924 153.604 38.241 153.894 37.2113L154.992 33.3096C155.053 33.096 155.111 32.932 155.164 32.8176C155.217 32.6955 155.282 32.604 155.358 32.543C155.435 32.482 155.53 32.44 155.644 32.4171C155.759 32.3942 155.919 32.3828 156.125 32.3828L156.182 32.0739Z" fill="#C11239"/>
<path d="M155.614 39.9688H157.17L157.696 38.0923C157.765 37.8406 157.856 37.5621 157.971 37.257C158.085 36.9519 158.215 36.6659 158.36 36.3989C158.512 36.1243 158.676 35.8993 158.852 35.7238C159.027 35.5484 159.207 35.4607 159.39 35.4607C159.481 35.4607 159.55 35.4835 159.596 35.5293C159.649 35.5751 159.676 35.6514 159.676 35.7582C159.676 35.8421 159.653 35.9603 159.607 36.1128L158.978 38.2868C158.909 38.5233 158.856 38.7254 158.818 38.8932C158.787 39.061 158.772 39.1983 158.772 39.3051C158.772 39.5645 158.833 39.7666 158.955 39.9115C159.077 40.0488 159.241 40.1175 159.447 40.1175C159.813 40.1175 160.126 40.0031 160.385 39.7742C160.644 39.5454 160.93 39.2212 161.243 38.8017C161.319 38.6873 161.373 38.611 161.403 38.5728L161.163 38.4012C161.163 38.4012 161.163 38.405 161.163 38.4127C161.11 38.4889 161.056 38.5614 161.003 38.6301C160.957 38.6987 160.896 38.775 160.82 38.8589C160.751 38.9428 160.683 39.0115 160.614 39.0648C160.545 39.1182 160.484 39.1449 160.431 39.1449C160.355 39.1449 160.316 39.0877 160.316 38.9733C160.316 38.897 160.335 38.7826 160.374 38.6301L161.094 36.1815C161.125 36.0976 161.152 35.9832 161.175 35.8382C161.205 35.6933 161.22 35.5789 161.22 35.495C161.22 35.2051 161.133 34.9648 160.957 34.7742C160.782 34.5835 160.553 34.4881 160.271 34.4881C159.843 34.4881 159.409 34.6788 158.966 35.0602C158.532 35.4416 158.154 35.9641 157.834 36.6277L157.811 36.6048L158.429 34.614L158.314 34.4881C158.055 34.5949 157.715 34.675 157.296 34.7284C156.876 34.7818 156.483 34.8085 156.117 34.8085L156.06 35.1174C156.319 35.1174 156.495 35.1327 156.586 35.1632C156.678 35.1937 156.724 35.27 156.724 35.392C156.724 35.4683 156.716 35.5675 156.701 35.6895C156.686 35.8039 156.663 35.9107 156.632 36.0099L155.614 39.9688Z" fill="#C11239"/>
<path d="M166.262 35.7925C166.255 35.9527 166.22 36.1434 166.159 36.3646C166.106 36.5782 166.037 36.7994 165.953 37.0282C165.877 37.2494 165.793 37.4668 165.702 37.6804C165.61 37.8863 165.526 38.0656 165.45 38.2181C165.252 38.5995 165.042 38.8627 164.821 39.0076C164.607 39.1526 164.397 39.225 164.191 39.225C163.81 39.2021 163.619 38.9619 163.619 38.5042C163.619 38.3288 163.68 38.0465 163.802 37.6575C163.924 37.2608 164.081 36.8604 164.271 36.4561C164.462 36.0442 164.676 35.6971 164.912 35.4149C165.149 35.1327 165.381 34.9915 165.61 34.9915C165.839 34.9915 166.003 35.0678 166.102 35.2204C166.209 35.3653 166.262 35.556 166.262 35.7925ZM166.434 32.1997C166.686 32.2074 166.861 32.2379 166.96 32.2913C167.059 32.3447 167.109 32.4438 167.109 32.5888C167.109 32.6879 167.079 32.8481 167.018 33.0693L166.445 35.1517C166.171 34.7093 165.793 34.4881 165.313 34.4881C164.901 34.4881 164.496 34.6292 164.1 34.9115C163.711 35.1937 163.364 35.5598 163.059 36.0099C162.754 36.4523 162.513 36.9176 162.338 37.4058C162.162 37.894 162.075 38.3326 162.075 38.7216C162.075 39.1793 162.185 39.5263 162.406 39.7628C162.635 39.9993 163.005 40.1175 163.516 40.1175C163.936 40.1175 164.294 40.0031 164.592 39.7742C164.897 39.5454 165.183 39.2212 165.45 38.8017H165.473C165.45 38.9085 165.439 39.0648 165.439 39.2708C165.439 39.5378 165.5 39.7475 165.622 39.9001C165.751 40.045 165.946 40.1175 166.205 40.1175C166.411 40.1175 166.602 40.0717 166.777 39.9802C166.96 39.8963 167.128 39.7819 167.281 39.6369C167.433 39.4844 167.567 39.3318 167.681 39.1793C167.796 39.0191 167.925 38.8284 168.07 38.6072L167.83 38.4355C167.723 38.6262 167.612 38.7941 167.498 38.939C167.391 39.0763 167.292 39.1449 167.201 39.1449C167.056 39.1449 166.983 39.0725 166.983 38.9275C166.983 38.7902 166.998 38.6682 167.029 38.5614L168.883 31.6734L168.757 31.5475C168.49 31.6772 168.162 31.7649 167.773 31.8107C167.391 31.8565 166.96 31.8832 166.48 31.8908L166.434 32.1997Z" fill="#C11239"/>
<path d="M172.14 35.3005C172.14 35.4759 172.09 35.6704 171.991 35.884C171.892 36.09 171.762 36.2883 171.602 36.479C171.442 36.6697 171.259 36.8299 171.053 36.9595C170.854 37.0892 170.656 37.1655 170.458 37.1884C170.481 37.0511 170.534 36.8489 170.618 36.582C170.709 36.315 170.82 36.0518 170.95 35.7925C171.079 35.5255 171.22 35.3043 171.373 35.1288C171.526 34.9458 171.678 34.8542 171.831 34.8542C172.037 34.8542 172.14 35.003 172.14 35.3005ZM172.643 38.5156C172.391 38.7597 172.136 38.9542 171.876 39.0992C171.625 39.2441 171.358 39.3166 171.076 39.3166C170.763 39.3166 170.542 39.2403 170.412 39.0877C170.29 38.9352 170.229 38.7635 170.229 38.5728C170.229 38.4279 170.248 38.2563 170.286 38.058C170.324 37.8596 170.358 37.7109 170.389 37.6117C170.709 37.5507 171.034 37.4744 171.362 37.3829C171.697 37.2837 172.021 37.1502 172.334 36.9824C172.654 36.8146 172.914 36.6087 173.112 36.3646C173.318 36.1128 173.421 35.823 173.421 35.495C173.421 35.1746 173.31 34.9267 173.089 34.7513C172.876 34.5758 172.605 34.4881 172.277 34.4881C171.827 34.4881 171.384 34.5949 170.95 34.8085C170.515 35.0221 170.126 35.3081 169.783 35.6666C169.447 36.0251 169.18 36.4294 168.982 36.8795C168.783 37.3219 168.684 37.7681 168.684 38.2181C168.684 38.7902 168.837 39.2517 169.142 39.6026C169.447 39.9459 169.882 40.1175 170.446 40.1175C170.919 40.1175 171.342 39.9993 171.716 39.7628C172.09 39.5263 172.475 39.1945 172.872 38.7674L172.643 38.5156Z" fill="#C11239"/>
<path d="M173.642 39.9688H175.187L175.828 37.6804C175.965 37.1464 176.129 36.7078 176.32 36.3646C176.51 36.0137 176.682 35.8382 176.835 35.8382C176.896 35.8382 176.945 35.8573 176.983 35.8955C177.029 35.9336 177.079 35.9908 177.132 36.0671L177.166 36.1128C177.235 36.1968 177.3 36.2616 177.361 36.3074C177.422 36.3455 177.498 36.3646 177.59 36.3646C177.857 36.3646 178.047 36.2692 178.162 36.0785C178.284 35.8878 178.345 35.6437 178.345 35.3462C178.345 35.1098 178.292 34.9076 178.185 34.7398C178.078 34.572 177.914 34.4881 177.693 34.4881C177.548 34.4881 177.403 34.5339 177.258 34.6254C177.121 34.7169 176.991 34.8352 176.869 34.9801C176.755 35.1174 176.648 35.2623 176.549 35.4149C176.449 35.5675 176.343 35.7429 176.228 35.9412C176.129 36.109 176.076 36.2006 176.068 36.2158L176.045 36.1929L176.549 34.6254L176.434 34.4881C176.175 34.5949 175.832 34.675 175.404 34.7284C174.985 34.7818 174.584 34.8085 174.203 34.8085L174.123 35.1174C174.42 35.1174 174.615 35.1327 174.706 35.1632C174.806 35.1937 174.855 35.2738 174.855 35.4035C174.855 35.5713 174.821 35.7734 174.752 36.0099L173.642 39.9688Z" fill="#C11239"/>
<path d="M181.835 37.0854C181.835 37.5278 181.907 37.9397 182.052 38.3211C182.205 38.6949 182.414 39.0229 182.681 39.3051C182.956 39.5797 183.28 39.7933 183.654 39.9459C184.035 40.0984 184.451 40.1747 184.901 40.1747C185.618 40.1747 186.301 40.026 186.949 39.7285C187.605 39.431 188.181 39.0267 188.677 38.5156C189.18 37.9969 189.573 37.4058 189.855 36.7422C190.138 36.0785 190.279 35.3958 190.279 34.6941C190.279 33.7863 189.974 33.0884 189.363 32.6002C188.761 32.112 187.964 31.8679 186.972 31.8679C186.354 31.8679 185.736 32.0167 185.118 32.3142C184.501 32.6116 183.944 33.0159 183.448 33.527C182.952 34.0304 182.559 34.5949 182.269 35.2204C181.98 35.8459 181.835 36.4675 181.835 37.0854ZM183.78 38.2181C183.78 37.9969 183.803 37.7223 183.848 37.3943C183.902 37.0587 183.978 36.6926 184.077 36.2959C184.184 35.8916 184.314 35.4759 184.466 35.0488C184.626 34.614 184.81 34.1982 185.015 33.8016C185.237 33.3897 185.507 33.035 185.828 32.7375C186.156 32.44 186.545 32.2913 186.995 32.2913C187.453 32.2913 187.788 32.4248 188.002 32.6917C188.223 32.9587 188.334 33.3363 188.334 33.8245C188.334 34.0457 188.307 34.3241 188.254 34.6597C188.208 34.9877 188.131 35.3539 188.025 35.7582C187.926 36.1548 187.796 36.5705 187.636 37.0053C187.483 37.4325 187.304 37.8444 187.098 38.241C186.999 38.4241 186.888 38.6034 186.766 38.7788C186.644 38.9466 186.495 39.1068 186.32 39.2594C186.152 39.4043 185.961 39.5225 185.748 39.6141C185.534 39.7056 185.298 39.7514 185.038 39.7514C184.619 39.7514 184.302 39.6179 184.089 39.3509C183.883 39.0839 183.78 38.7063 183.78 38.2181Z" fill="#C11239"/>
<path d="M190.851 39.9688H192.407L192.933 38.0923C193.002 37.8406 193.094 37.5621 193.208 37.257C193.322 36.9519 193.452 36.6659 193.597 36.3989C193.75 36.1243 193.914 35.8993 194.089 35.7238C194.264 35.5484 194.444 35.4607 194.627 35.4607C194.718 35.4607 194.787 35.4835 194.833 35.5293C194.886 35.5751 194.913 35.6514 194.913 35.7582C194.913 35.8421 194.89 35.9603 194.844 36.1128L194.215 38.2868C194.146 38.5233 194.093 38.7254 194.055 38.8932C194.024 39.061 194.009 39.1983 194.009 39.3051C194.009 39.5645 194.07 39.7666 194.192 39.9115C194.314 40.0488 194.478 40.1175 194.684 40.1175C195.05 40.1175 195.363 40.0031 195.622 39.7742C195.882 39.5454 196.168 39.2212 196.48 38.8017C196.557 38.6873 196.61 38.611 196.64 38.5728L196.4 38.4012C196.4 38.4012 196.4 38.405 196.4 38.4127C196.347 38.4889 196.293 38.5614 196.24 38.6301C196.194 38.6987 196.133 38.775 196.057 38.8589C195.988 38.9428 195.92 39.0115 195.851 39.0648C195.782 39.1182 195.721 39.1449 195.668 39.1449C195.592 39.1449 195.554 39.0877 195.554 38.9733C195.554 38.897 195.573 38.7826 195.611 38.6301L196.332 36.1815C196.362 36.0976 196.389 35.9832 196.412 35.8382C196.442 35.6933 196.457 35.5789 196.457 35.495C196.457 35.2051 196.37 34.9648 196.194 34.7742C196.019 34.5835 195.79 34.4881 195.508 34.4881C195.081 34.4881 194.646 34.6788 194.203 35.0602C193.769 35.4416 193.391 35.9641 193.071 36.6277L193.048 36.6048L193.666 34.614L193.551 34.4881C193.292 34.5949 192.952 34.675 192.533 34.7284C192.113 34.7818 191.72 34.8085 191.354 34.8085L191.297 35.1174C191.556 35.1174 191.732 35.1327 191.823 35.1632C191.915 35.1937 191.961 35.27 191.961 35.392C191.961 35.4683 191.953 35.5675 191.938 35.6895C191.923 35.8039 191.9 35.9107 191.869 36.0099L190.851 39.9688Z" fill="#C11239"/>
<path d="M200.973 35.3005C200.973 35.4759 200.924 35.6704 200.824 35.884C200.725 36.09 200.596 36.2883 200.435 36.479C200.275 36.6697 200.092 36.8299 199.886 36.9595C199.688 37.0892 199.489 37.1655 199.291 37.1884C199.314 37.0511 199.367 36.8489 199.451 36.582C199.543 36.315 199.653 36.0518 199.783 35.7925C199.913 35.5255 200.054 35.3043 200.206 35.1288C200.359 34.9458 200.512 34.8542 200.664 34.8542C200.87 34.8542 200.973 35.003 200.973 35.3005ZM201.477 38.5156C201.225 38.7597 200.969 38.9542 200.71 39.0992C200.458 39.2441 200.191 39.3166 199.909 39.3166C199.596 39.3166 199.375 39.2403 199.245 39.0877C199.123 38.9352 199.062 38.7635 199.062 38.5728C199.062 38.4279 199.081 38.2563 199.12 38.058C199.158 37.8596 199.192 37.7109 199.222 37.6117C199.543 37.5507 199.867 37.4744 200.195 37.3829C200.531 37.2837 200.855 37.1502 201.168 36.9824C201.488 36.8146 201.747 36.6087 201.946 36.3646C202.152 36.1128 202.255 35.823 202.255 35.495C202.255 35.1746 202.144 34.9267 201.923 34.7513C201.709 34.5758 201.438 34.4881 201.11 34.4881C200.66 34.4881 200.218 34.5949 199.783 34.8085C199.348 35.0221 198.959 35.3081 198.616 35.6666C198.28 36.0251 198.013 36.4294 197.815 36.8795C197.617 37.3219 197.518 37.7681 197.518 38.2181C197.518 38.7902 197.67 39.2517 197.975 39.6026C198.28 39.9459 198.715 40.1175 199.28 40.1175C199.753 40.1175 200.176 39.9993 200.55 39.7628C200.924 39.5263 201.309 39.1945 201.705 38.7674L201.477 38.5156Z" fill="#C11239"/>
<path d="M209.905 32.9892C209.966 32.768 210.039 32.6307 210.123 32.5773C210.214 32.5239 210.378 32.4972 210.615 32.4972C211.377 32.4972 211.759 32.8328 211.759 33.5041C211.759 33.8474 211.725 34.1563 211.656 34.4309C211.595 34.7055 211.492 34.9458 211.347 35.1517C211.202 35.3501 211.004 35.5064 210.752 35.6208C210.508 35.7276 210.207 35.781 209.848 35.781C209.558 35.781 209.318 35.7658 209.127 35.7353L209.905 32.9892ZM205.145 39.9688H209.127L209.184 39.6598C208.818 39.6522 208.559 39.6179 208.406 39.5568C208.261 39.4958 208.189 39.389 208.189 39.2365C208.189 39.1297 208.231 38.9314 208.315 38.6415L209.024 36.1243C209.398 36.1777 209.825 36.2044 210.306 36.2044C210.786 36.2044 211.229 36.151 211.633 36.0442C212.045 35.9298 212.4 35.7734 212.697 35.5751C213.002 35.3691 213.235 35.125 213.395 34.8428C213.555 34.5529 213.635 34.2364 213.635 33.8931C213.635 33.4965 213.559 33.1761 213.406 32.932C213.254 32.6879 213.029 32.5048 212.731 32.3828C212.442 32.2531 212.094 32.1692 211.69 32.1311C211.294 32.0929 210.798 32.0739 210.203 32.0739H207.205L207.136 32.3828C207.441 32.3904 207.651 32.4248 207.766 32.4858C207.888 32.5468 207.949 32.6688 207.949 32.8519C207.949 32.974 207.922 33.1265 207.869 33.3096L206.244 39.0648C206.183 39.2937 206.068 39.4501 205.901 39.534C205.74 39.6102 205.512 39.6522 205.214 39.6598L205.145 39.9688Z" fill="#C11239"/>
<path d="M214.779 32.1997C215.046 32.2074 215.218 32.2264 215.294 32.2569C215.371 32.2875 215.409 32.3561 215.409 32.4629C215.409 32.5392 215.401 32.6231 215.386 32.7146C215.371 32.8062 215.34 32.932 215.294 33.0922L213.795 38.6529C213.727 38.8894 213.692 39.1068 213.692 39.3051C213.692 39.8467 213.952 40.1175 214.47 40.1175C214.821 40.1175 215.13 39.9916 215.397 39.7399C215.664 39.4882 215.946 39.1411 216.244 38.6987L216.347 38.5614L216.107 38.4012C216.107 38.4012 216.084 38.4394 216.038 38.5156C215.916 38.6987 215.805 38.8513 215.706 38.9733C215.607 39.0877 215.515 39.1449 215.432 39.1449C215.302 39.1449 215.237 39.0839 215.237 38.9619C215.237 38.9314 215.264 38.8246 215.317 38.6415C215.34 38.5423 215.363 38.4584 215.386 38.3898L217.239 31.6963L217.114 31.5475C216.839 31.662 216.538 31.7421 216.21 31.7878C215.882 31.826 215.477 31.8565 214.997 31.8794L214.837 31.8908L214.779 32.1997Z" fill="#C11239"/>
<path d="M218.818 38.55C218.818 38.3593 218.876 38.0656 218.99 37.6689C219.105 37.2723 219.257 36.868 219.448 36.4561C219.638 36.0442 219.848 35.6971 220.077 35.4149C220.306 35.1327 220.535 34.9915 220.764 34.9915C220.939 34.9915 221.065 35.0449 221.141 35.1517C221.217 35.2585 221.256 35.3996 221.256 35.5751C221.256 35.7276 221.221 35.9298 221.153 36.1815C221.092 36.4332 221.008 36.704 220.901 36.9939C220.794 37.2837 220.684 37.5545 220.569 37.8062C220.455 38.058 220.355 38.2525 220.272 38.3898L220.249 38.4241C220.104 38.6758 219.963 38.8741 219.825 39.0191C219.688 39.1564 219.513 39.225 219.299 39.225C219.154 39.225 219.036 39.1564 218.944 39.0191C218.86 38.8741 218.818 38.7178 218.818 38.55ZM223.098 34.6368H221.645L221.507 35.1403C221.401 34.9343 221.256 34.7742 221.073 34.6597C220.889 34.5453 220.684 34.4881 220.455 34.4881C220.066 34.4881 219.68 34.633 219.299 34.9229C218.918 35.2051 218.574 35.5713 218.269 36.0213C217.964 36.4637 217.72 36.929 217.537 37.4172C217.362 37.8978 217.274 38.3173 217.274 38.6758C217.274 39.103 217.377 39.4501 217.583 39.717C217.796 39.984 218.109 40.1175 218.521 40.1175C218.933 40.1175 219.291 39.9916 219.597 39.7399C219.902 39.4882 220.192 39.1488 220.466 38.7216L220.489 38.7445C220.466 38.9047 220.455 39.0496 220.455 39.1793C220.455 39.4996 220.508 39.7361 220.615 39.8887C220.729 40.0412 220.916 40.1175 221.175 40.1175C221.458 40.1175 221.763 39.9916 222.091 39.7399C222.426 39.4806 222.747 39.1068 223.052 38.6186L222.812 38.4584L222.468 38.9275C222.354 39.0725 222.232 39.1449 222.102 39.1449C221.95 39.1449 221.873 39.0496 221.873 38.8589C221.873 38.7902 221.893 38.6911 221.931 38.5614L223.098 34.6368Z" fill="#C11239"/>
<path d="M227.625 34.6368H226.652L227.03 33.2181H226.778C226.481 33.6071 226.134 33.9389 225.737 34.2135C225.34 34.4881 224.913 34.6674 224.455 34.7513L224.41 35.0602H224.993L224.066 38.6186L224.055 38.6873C223.994 38.939 223.963 39.1602 223.963 39.3509C223.963 39.595 224.028 39.7857 224.158 39.923C224.288 40.0527 224.448 40.1175 224.639 40.1175C225.02 40.1175 225.363 39.9955 225.668 39.7514C225.981 39.4996 226.309 39.103 226.652 38.5614L226.412 38.4012C226.29 38.6072 226.16 38.7826 226.023 38.9275C225.893 39.0725 225.787 39.1449 225.703 39.1449C225.573 39.1449 225.508 39.0687 225.508 38.9161C225.508 38.8246 225.55 38.6262 225.634 38.3211L226.538 35.0602H227.556L227.625 34.6368Z" fill="#C11239"/>
<path d="M230.257 35.0602H231.298L231.355 34.6368H230.348C230.371 34.5758 230.417 34.3966 230.485 34.0991C230.546 33.8245 230.607 33.5689 230.668 33.3325C230.73 33.096 230.802 32.871 230.886 32.6574C230.97 32.4438 231.069 32.2684 231.183 32.1311C231.298 31.9862 231.424 31.9137 231.561 31.9137C231.607 31.9137 231.645 31.9328 231.675 31.9709C231.714 32.009 231.733 32.0548 231.733 32.1082C231.733 32.1387 231.706 32.1959 231.653 32.2798C231.569 32.44 231.527 32.5659 231.527 32.6574C231.527 32.7947 231.58 32.9129 231.687 33.0121C231.801 33.1113 231.931 33.1608 232.076 33.1608C232.267 33.1608 232.427 33.1036 232.556 32.9892C232.686 32.8672 232.751 32.7184 232.751 32.543C232.751 32.2074 232.629 31.9595 232.385 31.7993C232.141 31.6315 231.862 31.5475 231.55 31.5475C231.161 31.5475 230.813 31.6391 230.508 31.8222C230.211 32.0052 229.955 32.2493 229.742 32.5544C229.536 32.8519 229.36 33.1799 229.215 33.5384C229.078 33.8893 228.964 34.2555 228.872 34.6368H227.911L227.854 35.0602H228.781L227.602 39.9916C227.556 40.19 227.491 40.4112 227.408 40.6553C227.331 40.907 227.244 41.1473 227.144 41.3761C227.038 41.6049 226.927 41.7995 226.813 41.9596C226.691 42.1198 226.572 42.2037 226.458 42.2114C226.321 42.2114 226.252 42.1618 226.252 42.0626C226.252 42.0168 226.282 41.9558 226.343 41.8795C226.389 41.8185 226.424 41.7613 226.446 41.7079C226.469 41.6545 226.481 41.5859 226.481 41.502C226.481 41.3647 226.42 41.2426 226.298 41.1358C226.168 41.0367 226.035 40.9871 225.897 40.9871C225.699 40.9871 225.543 41.0519 225.428 41.1816C225.314 41.3113 225.256 41.4448 225.256 41.5821C225.256 41.9101 225.375 42.158 225.611 42.3258C225.848 42.4936 226.138 42.5775 226.481 42.5775C226.839 42.5775 227.179 42.4516 227.499 42.1999C227.819 41.9482 228.102 41.6278 228.346 41.2388C228.59 40.8574 228.792 40.4608 228.952 40.0488C229.12 39.6446 229.246 39.2746 229.33 38.939L230.257 35.0602Z" fill="#C11239"/>
<path d="M231.527 38.3097C231.527 38.9047 231.71 39.3547 232.076 39.6598C232.442 39.9649 232.946 40.1175 233.586 40.1175C234.013 40.1175 234.441 40.0107 234.868 39.7971C235.295 39.5835 235.68 39.2975 236.023 38.939C236.374 38.5728 236.649 38.1724 236.847 37.7376C237.045 37.3028 237.145 36.8718 237.145 36.4447C237.145 35.8497 236.965 35.3768 236.607 35.0259C236.256 34.6674 235.787 34.4881 235.2 34.4881C234.696 34.4881 234.219 34.5949 233.769 34.8085C233.319 35.0144 232.926 35.3005 232.591 35.6666C232.255 36.0251 231.992 36.4332 231.801 36.8909C231.618 37.3486 231.527 37.8215 231.527 38.3097ZM233.071 38.9161C233.071 38.7407 233.121 38.4317 233.22 37.9893C233.319 37.5393 233.453 37.0702 233.621 36.582C233.796 36.0938 233.994 35.6857 234.216 35.3577C234.444 35.0221 234.685 34.8542 234.936 34.8542C235.127 34.8542 235.283 34.9229 235.406 35.0602C235.535 35.1899 235.6 35.4111 235.6 35.7238C235.6 35.9374 235.547 36.2692 235.44 36.7193C235.341 37.1617 235.203 37.6155 235.028 38.0808C234.86 38.5461 234.662 38.9428 234.433 39.2708C234.204 39.5912 233.971 39.7514 233.735 39.7514C233.293 39.7514 233.071 39.4729 233.071 38.9161Z" fill="#C11239"/>
<path d="M237.759 39.9688H239.303L239.944 37.6804C240.081 37.1464 240.245 36.7078 240.436 36.3646C240.627 36.0137 240.798 35.8382 240.951 35.8382C241.012 35.8382 241.062 35.8573 241.1 35.8955C241.145 35.9336 241.195 35.9908 241.248 36.0671L241.283 36.1128C241.351 36.1968 241.416 36.2616 241.477 36.3074C241.538 36.3455 241.615 36.3646 241.706 36.3646C241.973 36.3646 242.164 36.2692 242.278 36.0785C242.4 35.8878 242.461 35.6437 242.461 35.3462C242.461 35.1098 242.408 34.9076 242.301 34.7398C242.194 34.572 242.03 34.4881 241.809 34.4881C241.664 34.4881 241.519 34.5339 241.374 34.6254C241.237 34.7169 241.107 34.8352 240.985 34.9801C240.871 35.1174 240.764 35.2623 240.665 35.4149C240.566 35.5675 240.459 35.7429 240.345 35.9412C240.245 36.109 240.192 36.2006 240.184 36.2158L240.161 36.1929L240.665 34.6254L240.551 34.4881C240.291 34.5949 239.948 34.675 239.521 34.7284C239.101 34.7818 238.701 34.8085 238.319 34.8085L238.239 35.1174C238.537 35.1174 238.731 35.1327 238.823 35.1632C238.922 35.1937 238.972 35.2738 238.972 35.4035C238.972 35.5713 238.937 35.7734 238.869 36.0099L237.759 39.9688Z" fill="#C11239"/>
<path d="M242.252 39.9688H243.796L244.448 37.6804C244.532 37.3829 244.635 37.1007 244.757 36.8337C244.887 36.5591 245.024 36.3188 245.169 36.1128C245.314 35.9069 245.463 35.7467 245.615 35.6323C245.768 35.5179 245.909 35.4607 246.039 35.4607C246.214 35.4607 246.302 35.5636 246.302 35.7696C246.302 35.884 246.287 36.0022 246.256 36.1243L245.204 39.9688H246.748L247.286 38.0236C247.507 37.2303 247.77 36.6048 248.075 36.1472C248.381 35.6895 248.693 35.4607 249.014 35.4607C249.151 35.4607 249.22 35.5408 249.22 35.7009C249.22 35.8001 249.197 35.9298 249.151 36.09L248.487 38.4584C248.396 38.7864 248.35 39.0687 248.35 39.3051C248.35 39.5797 248.407 39.7857 248.522 39.923C248.636 40.0527 248.8 40.1175 249.014 40.1175C249.227 40.1175 249.433 40.0679 249.632 39.9688C249.838 39.862 250.024 39.7285 250.192 39.5683C250.368 39.4081 250.52 39.2441 250.65 39.0763C250.78 38.9008 250.894 38.7292 250.993 38.5614L250.753 38.4012L250.719 38.4584C250.597 38.6491 250.478 38.8131 250.364 38.9504C250.249 39.0801 250.139 39.1449 250.032 39.1449C249.941 39.1449 249.895 39.0648 249.895 38.9047C249.895 38.8436 249.91 38.7445 249.941 38.6072L250.696 35.8039C250.741 35.6208 250.764 35.4607 250.764 35.3234C250.764 35.0564 250.688 34.8504 250.535 34.7055C250.391 34.5606 250.188 34.4881 249.929 34.4881C249.708 34.4881 249.487 34.5377 249.265 34.6368C249.052 34.736 248.846 34.8657 248.648 35.0259C248.457 35.1861 248.285 35.3577 248.133 35.5408C247.988 35.7162 247.862 35.8878 247.755 36.0556H247.732C247.763 35.9641 247.789 35.8688 247.812 35.7696C247.835 35.6628 247.847 35.5827 247.847 35.5293C247.847 35.1632 247.778 34.9 247.641 34.7398C247.511 34.572 247.282 34.4881 246.954 34.4881C246.718 34.4881 246.485 34.5453 246.256 34.6597C246.035 34.7665 245.825 34.9115 245.627 35.0945C245.429 35.2776 245.249 35.4721 245.089 35.6781C244.937 35.884 244.807 36.09 244.7 36.2959H244.677L245.158 34.6254L245.043 34.4881C244.784 34.5949 244.441 34.675 244.014 34.7284C243.594 34.7818 243.194 34.8085 242.812 34.8085L242.732 35.1174C243.03 35.1174 243.224 35.1327 243.316 35.1632C243.415 35.1937 243.464 35.2738 243.464 35.4035C243.464 35.5713 243.43 35.7734 243.361 36.0099L242.252 39.9688Z" fill="#C11239"/>
<path fill-rule="evenodd" clip-rule="evenodd" d="M36.4058 5.6386V23.1645C36.4058 30.2627 33.0775 36.9503 27.4146 41.2301L24.0389 43.7814C20.6341 46.3546 15.9377 46.3654 12.5211 43.8078L9.0744 41.2277C3.36258 36.952 -6.82124e-05 30.2343 -6.82124e-05 23.0995V5.47012C-6.82124e-05 4.02439 0.946933 2.74931 2.33098 2.3315C12.3526 -0.693742 23.0323 -0.776579 33.0997 2.09284L33.9021 2.32157C35.3839 2.74391 36.4058 4.09781 36.4058 5.6386ZM35.1865 5.90512V22.8581C35.1865 29.6821 31.9873 36.1114 26.5439 40.2268L23.5116 42.5193C20.4159 44.8598 16.1451 44.8696 13.0386 42.5434L9.94185 40.2245C4.4514 36.113 1.21927 29.6548 1.21927 22.7956V5.9271C1.21927 4.75761 2.00958 3.7259 3.13436 3.4056C12.9606 0.607437 23.4893 0.587968 33.3084 3.41099C34.4205 3.73071 35.1865 4.74802 35.1865 5.90512Z" fill="#C11239"/>
<path fill-rule="evenodd" clip-rule="evenodd" d="M33.7059 6.23867V23.2435C33.7059 28.9627 31.1512 34.3829 26.7399 38.0228L23.4689 40.7218C20.1803 43.4354 15.4107 43.3692 12.1986 40.5656L9.26107 38.0016C5.09219 34.3629 2.69995 29.0995 2.69995 23.566V6.16139C2.69995 5.48806 3.16064 4.90214 3.81497 4.74328C12.9905 2.51571 22.5587 2.45559 31.7614 4.5677L32.5123 4.74003C33.2108 4.90035 33.7059 5.52199 33.7059 6.23867ZM26.8222 9.306C25.0782 7.54785 22.7624 6.66877 19.8748 6.66877C18.188 6.66877 16.6727 6.95186 15.329 7.51805C13.9852 8.08423 13.2926 8.91861 12.4063 10.0212V7.10517H6.88053V31.1426H12.6636V19.0739C12.6636 16.7495 12.813 14.9765 13.9566 13.7547C15.1002 12.5031 16.6584 11.8774 18.6311 11.8774C20.3751 11.8774 21.7189 12.4137 22.6624 13.4865C23.6058 14.5295 24.0776 16.094 24.0776 18.1799V31.1426H29.4383V17.4647C29.4383 14.008 28.5663 11.0642 26.8222 9.306Z" fill="#C11239"/>
</svg>
