<svg width="27" height="24" viewBox="0 0 27 24" fill="none" xmlns="http://www.w3.org/2000/svg">
<g opacity="0.7">
<path d="M22.8901 5.86475H3.43223C2.08895 5.86475 1 6.95369 1 8.29698V20.4582C1 21.8014 2.08895 22.8904 3.43223 22.8904H22.8901C24.2334 22.8904 25.3223 21.8014 25.3223 20.4582V8.29698C25.3223 6.95369 24.2334 5.86475 22.8901 5.86475Z" stroke="#C11239" stroke-width="2" stroke-linecap="round" stroke-linejoin="round"/>
<path d="M18.0265 22.8901V3.43223C18.0265 2.78717 17.7703 2.16852 17.3142 1.71238C16.858 1.25625 16.2394 1 15.5943 1H10.7298C10.0848 1 9.46613 1.25625 9.00999 1.71238C8.55386 2.16852 8.29761 2.78717 8.29761 3.43223V22.8901" stroke="#C11239" stroke-width="2" stroke-linecap="round" stroke-linejoin="round"/>
</g>
</svg>
