<svg width="21" height="21" viewBox="0 0 21 21" fill="none" xmlns="http://www.w3.org/2000/svg">
<path d="M10.1976 19.4689C15.3177 19.4689 19.4684 15.3182 19.4684 10.1981C19.4684 5.07794 15.3177 0.927246 10.1976 0.927246C5.07745 0.927246 0.926758 5.07794 0.926758 10.1981C0.926758 15.3182 5.07745 19.4689 10.1976 19.4689Z" stroke="#3E444F" stroke-opacity="0.82" stroke-width="1.85417" stroke-linecap="round" stroke-linejoin="round"/>
<path d="M7.49963 7.41691C7.71759 6.79731 8.14781 6.27484 8.71407 5.94204C9.28034 5.60924 9.94611 5.48759 10.5935 5.59863C11.2408 5.70967 11.828 6.04624 12.251 6.54872C12.674 7.0512 12.9055 7.68718 12.9045 8.34399C12.9045 10.1982 10.1233 11.1252 10.1233 11.1252" stroke="#3E444F" stroke-opacity="0.82" stroke-width="1.85417" stroke-linecap="round" stroke-linejoin="round"/>
<path d="M10.1976 14.8335H10.2076" stroke="#3E444F" stroke-opacity="0.82" stroke-width="1.85417" stroke-linecap="round" stroke-linejoin="round"/>
</svg>
