<svg width="226" height="226" viewBox="0 0 226 226" fill="none" xmlns="http://www.w3.org/2000/svg">
<path d="M112.598 103.282V103.287L112.608 103.292L112.598 103.282Z" fill="#F5F5F5"/>
<path d="M112.652 103.359L112.629 103.382H112.685L112.652 103.359Z" fill="#F5F5F5"/>
<path d="M112.725 103.377V103.381H112.738L112.725 103.377Z" fill="#F5F5F5"/>
<path d="M112.688 103.382H112.721L112.698 103.368L112.688 103.382Z" fill="#F5F5F5"/>
<path d="M112.584 103.363L112.58 103.336L112.435 103.291L112.566 103.377L112.584 103.363Z" fill="#F5F5F5"/>
<path d="M112.589 103.341V103.364L112.607 103.355L112.589 103.341Z" fill="#F5F5F5"/>
<path d="M112.715 103.35L112.711 103.359L112.72 103.363L112.715 103.35Z" fill="#F5F5F5"/>
<path d="M112.693 103.368H112.684L112.689 103.378L112.693 103.368Z" fill="#F5F5F5"/>
<path d="M112.607 103.35L112.616 103.345L112.603 103.341L112.607 103.35Z" fill="#F5F5F5"/>
<path d="M112.707 103.336L112.688 103.345L112.698 103.35L112.707 103.336Z" fill="#F5F5F5"/>
<path d="M106.672 61.02L112.648 102.911L118.573 61.02H118.668L126.587 4.57424C117.235 3.28748 107.748 3.33466 98.4097 4.71436L106.505 61.02H106.672Z" fill="#F5F5F5"/>
<path d="M130.389 64.4733L112.761 103.25L177.767 27.7664C170.587 21.5477 162.55 16.3948 153.902 12.4662L130.312 64.4462L130.389 64.4733Z" fill="#F5F5F5"/>
<path d="M71.7192 91.3718L112.331 103.264H112.173L112.566 103.377H112.594V103.354L112.625 103.377H112.571L112.603 103.4H112.625H112.603L112.765 103.472L112.63 103.386L153.481 115.346C153.476 115.377 153.469 115.407 153.459 115.436L207.627 131.356C210.424 122.25 211.893 112.789 211.988 103.264H155.321V103.336L112.756 103.381V103.345L112.942 103.287L112.788 103.386L113.168 103.277H112.982L208.101 75.0817C205.447 65.9191 201.479 57.1892 196.322 49.164L112.937 103.264H112.792L112.851 103.192L112.743 103.264L112.783 103.033L112.707 103.205V103.264L112.657 103.3V103.264H112.625V103.205L112.548 103.056L112.575 103.246L112.49 103.192L112.535 103.241H112.395L29.3035 49.7607C24.2343 57.766 20.3448 66.4599 17.7549 75.5744L71.7192 91.3944V91.3718ZM112.63 103.368V103.395L112.499 103.309L112.63 103.368Z" fill="#F5F5F5"/>
<path d="M84.6824 71.068L112.548 103.228L94.866 64.4914L71.2535 12.8549C62.6743 16.8558 54.7121 22.0644 47.6094 28.3223L84.6734 71.0725L84.6824 71.068Z" fill="#F5F5F5"/>
<path d="M195.748 156.966L148.554 126.497C148.545 126.509 148.538 126.523 148.532 126.537L112.824 103.549L140.662 135.641L140.595 135.699L177.184 177.998C184.333 171.898 190.583 164.817 195.748 156.966Z" fill="#F5F5F5"/>
<path d="M112.711 103.477V103.472L112.707 103.467L112.711 103.477Z" fill="#F5F5F5"/>
<path d="M112.612 103.391L112.607 103.404L112.589 103.395L112.593 103.427L112.598 103.423L112.626 103.418L112.612 103.409L112.621 103.395H112.63L112.626 103.391L112.63 103.381H112.589L112.612 103.391Z" fill="#F5F5F5"/>
<path d="M112.408 103.481L112.575 103.431L112.584 103.39L112.571 103.381L112.408 103.481Z" fill="#F5F5F5"/>
<path d="M112.476 103.562L76.8628 126.668L76.7814 126.537L30.1079 156.74C35.2248 164.564 41.4194 171.628 48.5088 177.722L90.1245 129.521L112.476 103.562Z" fill="#F5F5F5"/>
<path d="M71.7416 115.472L112.548 103.381L14.0122 103.508C14.0824 112.922 15.4963 122.278 18.2113 131.292L71.7326 115.5L71.7416 115.472Z" fill="#F5F5F5"/>
<path d="M72.0176 192.76C80.5393 196.637 89.571 199.278 98.8393 200.602L112.548 103.707L72.0176 192.76Z" fill="#F5F5F5"/>
<path d="M112.72 103.422V103.404L112.711 103.409L112.72 103.422Z" fill="#F5F5F5"/>
<path d="M126.601 200.688C135.892 199.414 144.953 196.818 153.508 192.977L112.765 103.698L126.601 200.688Z" fill="#F5F5F5"/>
<path d="M112.611 103.544L112.657 103.865L112.702 103.553L112.652 103.454L112.611 103.544Z" fill="#F5F5F5"/>
<path d="M112.707 103.413L112.697 103.418L112.707 103.423V103.413Z" fill="#F5F5F5"/>
<path d="M211.988 216.666C211.988 216.734 167.665 216.784 113 216.784C58.3353 216.784 14.0122 216.734 14.0122 216.666C14.0122 216.598 58.3082 216.549 113 216.549C167.692 216.549 211.988 216.603 211.988 216.666Z" fill="#263238"/>
<path d="M138.908 53.1236C138.908 53.1236 153.255 83.8595 142.457 112.489C131.658 141.119 91.9954 182.156 87.5975 184.344C87.5975 184.344 97.772 168.356 79.1948 168.487C60.6176 168.619 51.2883 164.094 49.2905 157.581C47.2926 151.067 58.3305 130.031 48.1785 124.978C38.0266 119.925 25.687 121.439 17.4019 114.428C17.4019 114.428 36.7249 112.819 50.99 111.364C65.9647 109.836 110.966 78.4943 114.6 55.4378" fill="#FF725E"/>
<g opacity="0.4">
<path opacity="0.4" d="M138.908 53.1236C138.908 53.1236 153.255 83.8595 142.457 112.489C131.658 141.119 91.9954 182.156 87.5975 184.344C87.5975 184.344 97.772 168.356 79.1948 168.487C60.6176 168.619 51.2883 164.094 49.2905 157.581C47.2926 151.067 58.3305 130.031 48.1785 124.978C38.0266 119.925 25.687 121.439 17.4019 114.428C17.4019 114.428 36.7249 112.819 50.99 111.364C65.9647 109.836 110.966 78.4943 114.6 55.4378" fill="black"/>
</g>
<path d="M86.7071 106.048C86.6278 106.118 86.5432 106.182 86.454 106.238L85.6991 106.749C85.0483 107.201 84.0855 107.807 82.8832 108.557C80.4785 110.03 77.075 111.951 73.1923 113.814C69.8761 115.403 66.4818 116.824 63.0223 118.071C61.6934 118.546 60.6131 118.912 59.8583 119.143L58.9905 119.409C58.8911 119.446 58.7881 119.472 58.6831 119.486C58.7755 119.436 58.8723 119.396 58.9724 119.364L59.8267 119.057C60.5725 118.799 61.6347 118.41 62.9635 117.913C65.6032 116.928 69.2102 115.459 73.0929 113.601C76.9755 111.743 80.3701 109.85 82.7973 108.412C84.0087 107.698 84.985 107.101 85.6494 106.686L86.4269 106.211C86.5142 106.147 86.6081 106.092 86.7071 106.048Z" fill="#263238"/>
<path d="M98.9155 123.089C98.8182 123.176 98.7156 123.258 98.6081 123.333L97.7041 123.993C96.9131 124.558 95.7831 125.389 94.4 126.433C91.6247 128.513 87.8596 131.478 83.8729 134.958C79.8863 138.439 76.442 141.774 74.0058 144.242C72.7899 145.476 71.8136 146.502 71.1446 147.189L70.3717 147.994C70.2826 148.09 70.1874 148.181 70.0869 148.265C70.1634 148.159 70.2465 148.058 70.3355 147.962L71.0768 147.126C71.7277 146.403 72.6859 145.377 73.8882 144.129C76.2929 141.625 79.7281 138.253 83.7147 134.782C87.7014 131.311 91.4982 128.345 94.3006 126.298C95.6972 125.272 96.8453 124.463 97.6499 123.916L98.5539 123.292C98.6662 123.211 98.7875 123.142 98.9155 123.089Z" fill="#263238"/>
<path d="M97.2655 128.124C97.2275 128.186 97.1819 128.244 97.1299 128.296L96.7096 128.748C96.3389 129.141 95.8056 129.697 95.1095 130.37C93.7535 131.726 91.8099 133.534 89.5815 135.455C87.3532 137.376 85.2604 138.999 83.7055 140.147C82.9326 140.717 82.2998 141.173 81.8569 141.476L81.3461 141.824C81.2877 141.868 81.2239 141.905 81.1562 141.933C81.1562 141.933 81.2105 141.874 81.319 141.783L81.8026 141.404L83.6106 140.012C85.1248 138.836 87.1995 137.182 89.4188 135.275C91.6381 133.367 93.5953 131.573 94.9874 130.253L96.6327 128.684L97.0847 128.26C97.2022 128.165 97.2565 128.119 97.2655 128.124Z" fill="#263238"/>
<path d="M94.8475 200.688L92.5333 211.156L88.3161 218.904C88.2435 219.036 88.1989 219.181 88.1852 219.331C88.1715 219.481 88.189 219.633 88.2365 219.776C88.284 219.919 88.3606 220.05 88.4614 220.163C88.5622 220.275 88.6851 220.365 88.8223 220.427C88.9811 220.5 89.155 220.534 89.3296 220.526C89.5042 220.518 89.6743 220.469 89.8258 220.382C91.7875 219.247 98.9878 215.039 99.1144 214.266C99.259 213.362 102.278 203.386 102.278 203.386L94.8475 200.688Z" fill="#263238"/>
<path d="M99.4398 213.236C99.3205 213.355 99.1869 213.46 99.042 213.547L97.9075 214.316L94.1514 216.833L90.3998 219.356C89.9478 219.649 89.5681 219.903 89.2562 220.11C89.1165 220.212 88.9647 220.295 88.8042 220.359C88.9203 220.237 89.0491 220.128 89.1884 220.034C89.446 219.835 89.8212 219.559 90.2913 219.215C91.2269 218.537 92.5513 217.62 94.0067 216.635C95.4622 215.649 96.8182 214.786 97.8035 214.18C98.2962 213.873 98.7075 213.629 98.9787 213.471C99.1226 213.374 99.2774 213.295 99.4398 213.236Z" fill="#455A64"/>
<path d="M141.259 203.192L140.631 211.536C140.631 211.536 148.92 214.98 148.957 216.535H132.685L133.137 202.835L141.259 203.192Z" fill="#263238"/>
<path d="M148.446 215.997C148.238 216.021 148.029 216.021 147.822 215.997L146.122 215.943C144.689 215.898 142.71 215.835 140.517 215.807C138.325 215.78 136.35 215.78 134.913 215.807H133.213C133.005 215.821 132.796 215.812 132.589 215.78C132.795 215.739 133.004 215.718 133.213 215.717C133.611 215.69 134.194 215.663 134.913 215.636C136.345 215.586 138.33 215.554 140.522 215.586C142.714 215.618 144.698 215.699 146.131 215.789C146.845 215.835 147.424 215.88 147.826 215.916C148.034 215.927 148.242 215.954 148.446 215.997Z" fill="#455A64"/>
<path d="M104.823 119.016L90.4541 207.748L103.653 208.544L124.02 119.016H104.823Z" fill="#FF725E"/>
<path d="M124.259 115.147L130.89 208.544H143.307V109.655L124.259 115.147Z" fill="#FF725E"/>
<path d="M138.814 202.704C138.746 202.704 137.747 184.213 136.576 161.396C135.406 138.579 134.506 120.074 134.574 120.069C134.642 120.065 135.641 138.561 136.811 161.382C137.982 184.204 138.877 202.704 138.814 202.704Z" fill="#263238"/>
<path d="M143.306 202.704L143.212 202.736C143.13 202.736 143.004 202.781 142.845 202.803C142.524 202.858 142.054 202.921 141.489 202.993C140.337 203.133 138.737 203.301 136.969 203.445C133.439 203.766 130.556 203.897 130.56 203.734C130.56 203.734 130.605 203.734 130.687 203.734H131.062L132.418 203.626L136.938 203.233L141.458 202.835C142.606 202.749 143.356 202.695 143.306 202.704Z" fill="#263238"/>
<path d="M112.647 121.104C112.647 121.104 112.647 121.177 112.625 121.317C112.602 121.457 112.575 121.665 112.539 121.927C112.458 122.474 112.336 123.26 112.182 124.268C111.87 126.302 111.4 129.24 110.799 132.856C109.601 140.115 107.856 150.132 105.741 161.161C103.625 172.189 101.528 182.138 99.9552 189.329C99.1688 192.923 98.5134 195.829 98.0523 197.831C97.8218 198.826 97.641 199.603 97.5144 200.141L97.3698 200.738C97.3336 200.873 97.311 200.941 97.311 200.941C97.311 200.941 97.311 200.869 97.3472 200.733C97.3834 200.598 97.415 200.385 97.4692 200.128C97.5822 199.59 97.7495 198.812 97.9619 197.813C98.4139 195.788 99.0196 192.882 99.7925 189.293C101.325 182.097 103.409 172.144 105.51 161.115C107.612 150.087 109.384 140.12 110.636 132.843C111.251 129.227 111.748 126.293 112.091 124.255C112.263 123.247 112.399 122.447 112.494 121.918C112.539 121.66 112.575 121.466 112.602 121.312C112.629 121.159 112.647 121.104 112.647 121.104Z" fill="#263238"/>
<path d="M104.981 202.704C104.803 202.732 104.623 202.74 104.443 202.727L102.983 202.69L98.165 202.496L93.3512 202.27L91.8913 202.202C91.713 202.202 91.535 202.191 91.3579 202.171C92.0197 202.078 92.6893 202.056 93.3557 202.103C94.5897 202.103 96.2937 202.18 98.1741 202.261C100.054 202.342 101.758 202.442 102.988 202.523C103.607 202.564 104.104 202.6 104.448 202.632C104.628 202.638 104.806 202.662 104.981 202.704Z" fill="#263238"/>
<g opacity="0.3">
<path opacity="0.3" d="M104.127 123.333L104.412 121.57L123.676 120.481L122.948 123.694L104.127 123.333Z" fill="black"/>
</g>
<g opacity="0.3">
<path opacity="0.3" d="M124.806 123.694L124.259 120.467L143.307 119.527L143.302 124.092L124.806 123.694Z" fill="black"/>
</g>
<path d="M106.062 53.4174L119.509 50.4251L130.809 50.8907L140.662 54.023L135.057 82.1284L113.605 84.0313L106.062 53.4174Z" fill="#263238"/>
<path d="M117.465 50.8907L103.318 54.023L110.392 91.9142C110.392 91.9142 104.064 107.282 103.318 121.57L124.259 120.467C124.259 120.467 125.701 101.637 125.208 94.3866C124.716 87.1366 124.386 74.4534 124.386 74.4534L117.465 50.8907Z" fill="#FF725E"/>
<path d="M77.0117 72.6319C77.0117 72.6319 81.8119 67.7638 86.8201 65.1468C90.5129 63.2167 97.7449 60.794 100.62 57.6842C101.671 56.58 102.582 55.3503 103.332 54.023L106.672 71.868L92.4746 74.128C92.4746 74.128 94.5854 75.2806 93.2701 76.1032L102.165 86.4992L96.068 97.9981C96.068 97.9981 76.189 80.8718 77.0117 72.6319Z" fill="#FF725E"/>
<path d="M130.809 50.8907C132.528 51.1053 134.227 51.459 135.889 51.9484C138.899 52.9428 143.989 54.023 143.989 54.023L136.757 92.4114C136.757 92.4114 146.588 104.561 143.989 119.427C143.989 119.427 130.406 120.499 124.259 120.467L124.178 73.7574C124.178 73.7574 129.326 67.2034 129.986 60.7759C130.646 54.3485 130.809 50.8907 130.809 50.8907Z" fill="#FF725E"/>
<path d="M143.989 54.023C143.989 54.023 152.093 62.4167 156.554 65.5852C161.016 68.7537 166.629 73.4952 166.629 76.0174C166.539 77.5956 166.218 79.152 165.676 80.6368C165.364 81.5693 164.906 82.4465 164.32 83.2358C162.272 85.9478 156.848 93.0261 153.264 96.3845L144.224 86.8608L152.812 77.3688C152.812 77.3688 141.286 72.6138 140.716 71.3211C140.147 70.0283 143.989 54.023 143.989 54.023Z" fill="#FF725E"/>
<path d="M124.092 78.8198C124.017 78.7648 123.947 78.7028 123.884 78.6344L123.319 78.0694L121.244 75.936L114.211 68.591L114.17 68.5458V68.4825L115.101 64.5772C115.242 63.9941 115.377 63.4201 115.513 62.8506L115.626 62.9952H111.006L111.052 62.8506C112.145 59.5374 113.081 56.6989 113.764 54.6649C114.098 53.675 114.365 52.884 114.559 52.3145C114.649 52.0568 114.722 51.8625 114.781 51.6952C114.802 51.6216 114.83 51.5504 114.866 51.4828C114.855 51.558 114.836 51.6321 114.812 51.7043C114.767 51.867 114.704 52.0749 114.627 52.3371L113.904 54.692C113.248 56.735 112.34 59.5826 111.282 62.9048L111.178 62.7602H115.657H115.807L115.775 62.9048C115.639 63.4743 115.499 64.0484 115.364 64.6315C115.038 65.9875 114.726 67.2892 114.428 68.5368L114.396 68.4328L121.371 75.8366L123.396 78.0197L123.934 78.6164C123.992 78.6792 124.045 78.7473 124.092 78.8198Z" fill="#263238"/>
<path d="M124.259 120.467C124.196 120.467 124.11 109.931 124.07 96.9359C124.029 83.9409 124.047 73.4003 124.11 73.3958C124.174 73.3912 124.259 83.9319 124.305 96.9359C124.35 109.94 124.327 120.467 124.259 120.467Z" fill="#263238"/>
<path d="M132.978 51.2342C133.008 51.3161 133.03 51.4009 133.042 51.4873C133.073 51.6772 133.119 51.9393 133.177 52.2286C133.29 52.9021 133.448 53.8377 133.629 54.9994L135.157 64.4597L135.18 64.6134H135.026L132.531 64.2789L132.653 64.1117L133.164 65.1513C133.507 65.8519 133.846 66.5434 134.172 67.1988L134.203 67.2666L134.158 67.3209L127.586 75.5292L125.615 77.9564L125.073 78.6073C125.016 78.6864 124.949 78.7579 124.874 78.8198C124.924 78.7359 124.98 78.6558 125.041 78.5802L125.548 77.9067L127.464 75.4343L133.986 67.1536V67.2802C133.665 66.6248 133.326 65.9242 132.978 65.2326L132.436 64.184L132.337 63.9851L132.558 64.0122L135.053 64.3558L134.927 64.4868C134.348 60.7036 133.842 57.3995 133.48 54.9948C133.313 53.8287 133.177 52.8885 133.078 52.215C133.039 51.9137 133.007 51.6651 132.983 51.4692C132.975 51.3911 132.973 51.3125 132.978 51.2342Z" fill="#263238"/>
<path d="M122.293 105.198C121.814 104.615 120.878 104.294 120.426 104.882C120.198 105.07 120.032 105.323 119.951 105.607C119.87 105.891 119.878 106.193 119.974 106.473C120.051 106.644 120.162 106.797 120.299 106.924C120.437 107.052 120.598 107.15 120.774 107.214C120.95 107.278 121.137 107.306 121.324 107.297C121.511 107.288 121.695 107.241 121.863 107.16C122.027 107.066 122.17 106.938 122.282 106.786C122.393 106.633 122.472 106.459 122.513 106.274C122.553 106.09 122.554 105.899 122.517 105.713C122.479 105.528 122.403 105.353 122.293 105.198Z" fill="#263238"/>
<path d="M122.546 92.999C122.067 92.4114 121.131 92.0724 120.679 92.6826C120.452 92.871 120.287 93.1239 120.206 93.4079C120.126 93.692 120.133 93.9938 120.227 94.2736C120.304 94.4447 120.415 94.5985 120.552 94.7261C120.689 94.8538 120.851 94.9525 121.027 95.0166C121.203 95.0806 121.39 95.1087 121.578 95.0991C121.765 95.0895 121.948 95.0424 122.117 94.9607C122.281 94.8665 122.423 94.739 122.535 94.5864C122.647 94.4339 122.725 94.2597 122.766 94.0749C122.806 93.8902 122.808 93.699 122.77 93.5137C122.732 93.3284 122.656 93.1531 122.546 92.999Z" fill="#263238"/>
<path d="M154.828 91.9911C154.349 91.408 153.413 91.0871 152.961 91.6747C152.733 91.8626 152.568 92.1155 152.487 92.3997C152.406 92.6839 152.414 92.986 152.509 93.2657C152.586 93.4367 152.696 93.5906 152.833 93.7182C152.971 93.8458 153.132 93.9446 153.308 94.0086C153.485 94.0727 153.672 94.1008 153.859 94.0912C154.046 94.0816 154.23 94.0345 154.398 93.9527C154.562 93.8585 154.705 93.731 154.817 93.5785C154.928 93.4259 155.007 93.2517 155.047 93.067C155.088 92.8822 155.089 92.6911 155.051 92.5058C155.014 92.3205 154.937 92.1452 154.828 91.9911Z" fill="#263238"/>
<path d="M95.964 93.112C95.4849 92.5244 94.5492 92.1854 94.0972 92.7956C93.8693 92.9836 93.704 93.2365 93.6233 93.5207C93.5425 93.8049 93.5502 94.1069 93.6452 94.3866C93.722 94.5577 93.8323 94.7115 93.9697 94.8391C94.107 94.9668 94.2685 95.0655 94.4447 95.1296C94.6209 95.1936 94.8081 95.2217 94.9953 95.2121C95.1825 95.2025 95.3659 95.1554 95.5346 95.0737C95.6986 94.9795 95.841 94.852 95.9528 94.6994C96.0646 94.5469 96.1432 94.3727 96.1836 94.1879C96.2241 94.0032 96.2254 93.812 96.1876 93.6267C96.1498 93.4414 96.0736 93.2661 95.964 93.112Z" fill="#263238"/>
<path d="M93.3829 76.2705C92.2524 75.7455 91.0455 75.4037 89.8076 75.258C88.5644 75.1908 87.3183 75.319 86.1147 75.6377C86.4356 75.4491 86.7853 75.3147 87.1498 75.2399C88.9101 74.7894 90.7711 74.9488 92.4292 75.6919C92.7773 75.8299 93.0997 76.0255 93.3829 76.2705Z" fill="#263238"/>
<path d="M86.1147 74.128C86.3904 73.9454 86.6966 73.8138 87.0187 73.7393C87.7913 73.5077 88.5943 73.3934 89.4008 73.4003C90.2089 73.4074 91.0116 73.5339 91.7828 73.7754C92.1034 73.8613 92.4084 73.997 92.6868 74.1777C91.6135 73.8685 90.5076 73.6864 89.3917 73.6353C88.2835 73.6658 87.183 73.8313 86.1147 74.128Z" fill="#263238"/>
<path d="M107.079 74.1732C106.996 73.9264 106.931 73.6742 106.884 73.4184L106.432 71.3482C106.007 69.5718 105.438 67.1808 104.81 64.5366C104.181 61.8924 103.675 59.447 103.395 57.6707C103.25 56.7667 103.151 56.0661 103.101 55.5689C103.059 55.3119 103.039 55.0518 103.042 54.7914C103.11 55.0421 103.16 55.2974 103.191 55.5553C103.268 56.048 103.395 56.7622 103.558 57.6436C103.878 59.4064 104.407 61.8246 105.04 64.4823C105.673 67.1401 106.238 69.5583 106.595 71.3166C106.776 72.1934 106.911 72.9076 106.988 73.4003C107.039 73.6551 107.069 73.9135 107.079 74.1732Z" fill="#263238"/>
<path d="M143.487 54.8909C143.477 55.1584 143.444 55.4246 143.388 55.6864C143.302 56.2333 143.184 56.9565 143.04 57.8379C142.737 59.6866 142.33 62.1816 141.883 64.9343C141.435 67.687 140.979 70.2091 140.653 72.0171C140.482 72.9211 140.337 73.6534 140.228 74.1596C140.188 74.4237 140.124 74.6838 140.039 74.9371C140.048 74.6659 140.075 74.3956 140.12 74.128C140.21 73.5811 140.328 72.8579 140.468 71.9765C140.771 70.1233 141.182 67.6327 141.63 64.8801C142.077 62.1274 142.534 59.6052 142.859 57.7927C143.031 56.8887 143.175 56.161 143.279 55.6547C143.331 55.3957 143.401 55.1405 143.487 54.8909Z" fill="#263238"/>
<path d="M158.905 72.7087C158.905 72.7494 158.403 72.7087 157.608 72.7494C156.574 72.7585 155.573 73.1133 154.765 73.7574C154.027 74.4815 153.48 75.3777 153.174 76.3654C153.047 76.7808 152.896 77.1883 152.722 77.5858C152.772 77.1508 152.872 76.7231 153.02 76.3112C153.293 75.2713 153.844 74.3257 154.616 73.5766C155.068 73.1866 155.605 72.908 156.184 72.763C156.649 72.6433 157.127 72.5825 157.608 72.5822C157.928 72.579 158.248 72.5971 158.566 72.6364C158.683 72.6384 158.798 72.663 158.905 72.7087Z" fill="#263238"/>
<path d="M161.061 74.8195C161.061 74.8602 160.564 74.8195 159.769 74.8738C157.691 74.9945 155.682 75.6635 153.947 76.8129C153.278 77.2649 152.903 77.5722 152.876 77.5406C152.848 77.509 152.948 77.4366 153.111 77.283C153.344 77.0638 153.592 76.86 153.852 76.6728C155.574 75.4262 157.638 74.7398 159.764 74.7065C160.083 74.7013 160.401 74.7164 160.718 74.7518C160.835 74.7527 160.952 74.7757 161.061 74.8195Z" fill="#263238"/>
<path d="M113.777 92.999C113.253 92.8679 112.742 92.6894 112.25 92.4656C111.732 92.3135 111.23 92.1137 110.749 91.869C111.296 91.8889 111.833 92.0163 112.331 92.2442C112.857 92.401 113.348 92.6573 113.777 92.999Z" fill="#263238"/>
<path d="M114.356 88.4564C114.392 88.5106 113.334 89.2338 112.146 90.2644C110.957 91.295 110.08 92.2261 110.03 92.1764C110.579 91.3872 111.24 90.6822 111.992 90.0836C112.695 89.4275 113.492 88.8792 114.356 88.4564Z" fill="#263238"/>
<path d="M143.989 119.427C143.989 119.495 134.89 120.024 123.649 120.616C112.408 121.208 103.309 121.638 103.309 121.57C103.309 121.502 112.408 120.973 123.649 120.381C134.89 119.789 143.985 119.364 143.989 119.427Z" fill="#263238"/>
<g opacity="0.3">
<path opacity="0.3" d="M152.378 77.1248C152.094 76.2515 152.095 75.3103 152.381 74.4376C152.667 73.5648 153.223 72.8057 153.969 72.2703C154.276 72.0204 154.669 71.9018 155.063 71.9403C155.159 71.9542 155.25 71.9882 155.332 72.0401C155.413 72.092 155.483 72.1606 155.536 72.2413C155.589 72.3221 155.624 72.4131 155.639 72.5085C155.654 72.6039 155.649 72.7014 155.624 72.7946C155.491 73.0062 155.299 73.1743 155.072 73.2782C154.386 73.7477 153.866 74.4237 153.59 75.2083C153.315 75.9872 153.126 76.7934 153.025 77.6129" fill="black"/>
</g>
<g opacity="0.3">
<path opacity="0.3" d="M111.16 62.8687C111.242 63.1128 112.86 63.2981 113.167 63.967C113.405 64.6676 113.405 65.427 113.167 66.1276C112.933 66.8264 112.821 67.5604 112.837 68.2972C112.973 69.608 114.048 70.5979 115.052 71.4612C117.854 73.8523 121.267 76.4332 124.092 78.8288C121.588 75.8456 118.324 72.772 115.567 70.06C115.131 69.689 114.782 69.2259 114.546 68.704C114.382 67.9954 114.426 67.2549 114.672 66.5706C114.907 65.6455 115.145 64.7189 115.386 63.7908C115.445 63.5512 115.585 63.1489 115.617 63.0178C115.283 62.9594 114.944 62.9307 114.604 62.932C113.458 62.8447 112.308 62.8357 111.16 62.9048" fill="black"/>
</g>
<path d="M95.5933 94.2013C95.6256 94.0722 95.6742 93.9476 95.7379 93.8307C95.8464 93.6002 96.0136 93.2702 96.2306 92.8679C96.8076 91.8248 97.457 90.8234 98.1742 89.8712C98.8878 88.9129 99.6687 88.0066 100.511 87.1592C100.836 86.8382 101.108 86.5851 101.302 86.4179C101.496 86.2506 101.605 86.1648 101.618 86.1783C101.31 86.5623 100.981 86.929 100.633 87.2767C100.018 87.9456 99.1957 88.8903 98.3731 89.9887C97.5504 91.087 96.8589 92.1538 96.3888 92.9267C96.1494 93.3671 95.8837 93.7928 95.5933 94.2013Z" fill="#263238"/>
<path d="M98.9427 83.0053C98.9698 83.0369 98.45 83.5386 97.6725 84.4065C95.6413 86.6698 93.9967 89.2521 92.8045 92.0498C92.3525 93.121 92.1084 93.8036 92.0723 93.7945C92.0961 93.6251 92.137 93.4585 92.1943 93.2973C92.2847 92.9809 92.4384 92.5334 92.6463 91.9865C93.7645 89.131 95.4287 86.521 97.546 84.3025C97.9528 83.8776 98.2918 83.5522 98.5404 83.3352C98.6633 83.2122 98.798 83.1017 98.9427 83.0053Z" fill="#263238"/>
<path d="M157.201 92.1447C157.067 92.0357 156.945 91.9113 156.84 91.7741L155.904 90.7345C155.108 89.8621 153.983 88.6734 152.708 87.3987C151.434 86.1241 150.24 85.0031 149.363 84.2121L148.319 83.2765C148.182 83.1708 148.058 83.0494 147.949 82.9149C148.104 82.9923 148.248 83.0895 148.378 83.2042C148.645 83.403 149.02 83.7014 149.472 84.0856C150.376 84.8494 151.592 85.9568 152.871 87.2496C154.15 88.5423 155.262 89.7356 156.035 90.6441C156.419 91.0961 156.718 91.4712 156.939 91.7334C157.042 91.8601 157.13 91.9981 157.201 92.1447Z" fill="#263238"/>
<path d="M100.877 88.8994L103.838 90.4949L110.405 92.3572C110.405 92.3572 109.049 101.343 108.195 102.111C107.341 102.88 97.7446 94.807 97.7446 94.807L100.877 88.8994Z" fill="#FFBE9D"/>
<path d="M145.648 88.3615L143.51 90.0248L137.349 92.9583C137.349 92.9583 140.197 101.587 141.155 102.202C142.113 102.816 150.24 93.2612 150.24 93.2612L145.648 88.3615Z" fill="#FFBE9D"/>
<path d="M115.319 23.504C115.233 25.8182 112.155 27.2194 112.191 29.5337C112.191 30.5236 112.824 31.4185 112.946 32.4039C113.108 33.7282 112.367 34.9758 112.091 36.282C111.531 38.994 113.095 41.8145 115.418 43.288C117.741 44.7616 120.652 45.0418 123.378 44.6712" fill="#263238"/>
<path d="M133.932 22.9526C133.842 24.1956 134.66 25.303 135.487 26.2341C136.314 27.1652 137.232 28.137 137.408 29.38C137.724 31.5632 135.6 33.5881 136.029 35.7532C136.264 36.9103 137.214 37.8414 137.385 39.0121C137.557 40.1828 136.933 41.2721 136.192 42.1128C135.451 42.9536 134.569 42.8451 133.905 43.7762C133.132 44.8212 132.15 45.6939 131.021 46.339C128.626 47.6544 125.751 45.756 124.594 45.435" fill="#263238"/>
<path d="M114.853 24.86C114.821 23.7345 115.861 22.8622 116.91 22.4508C117.958 22.0395 119.124 21.8858 120.074 21.253C120.901 20.6971 121.457 19.8292 122.157 19.1196C123.021 18.2449 124.101 17.6152 125.288 17.2952C126.475 16.9751 127.725 16.976 128.912 17.2979C130.098 17.6197 131.177 18.251 132.04 19.127C132.902 20.003 133.516 21.0924 133.819 22.2836C134.221 23.8837 133.946 25.7821 132.68 26.8443C131.215 28.0828 129.041 27.807 127.161 27.4228C125.281 27.0386 123.138 26.668 121.588 27.7709C120.643 28.4398 120.101 29.5201 119.522 30.5236C118.944 31.527 118.216 32.5485 117.122 32.9237C116.028 33.2988 114.546 32.6525 114.5 31.4954" fill="#263238"/>
<path d="M119.292 25.0815C118.822 25.1323 118.389 25.3574 118.078 25.7123C117.767 26.0672 117.6 26.526 117.61 26.998L118.736 52.432C118.781 55.4333 123.174 57.1238 126.393 57.0469C129.638 56.9746 129.747 55.379 129.783 52.5269C129.851 47.7493 129.846 45.9594 129.851 45.9865C129.855 46.0136 133.95 45.2949 134.791 39.9387C135.207 37.2719 135.062 32.9056 134.832 29.3348C134.624 26.1256 132.486 22.1887 129.286 22.5322L119.292 25.0815Z" fill="#FFBE9D"/>
<path d="M133.132 32.3994C133.134 32.5781 133.067 32.7506 132.943 32.88C132.82 33.0093 132.651 33.085 132.472 33.0909C132.385 33.0983 132.297 33.0882 132.214 33.0611C132.131 33.034 132.054 32.9905 131.987 32.9332C131.921 32.8759 131.867 32.806 131.829 32.7275C131.79 32.649 131.767 32.5635 131.762 32.4762C131.76 32.2947 131.829 32.1197 131.955 31.9893C132.082 31.8589 132.254 31.7837 132.436 31.7801C132.522 31.7746 132.609 31.7863 132.691 31.8145C132.773 31.8428 132.848 31.8869 132.913 31.9445C132.978 32.0021 133.03 32.072 133.068 32.15C133.106 32.2281 133.127 32.3128 133.132 32.3994Z" fill="#263238"/>
<path d="M133.891 31.6129C133.805 31.6988 133.281 31.3146 132.535 31.3191C131.789 31.3236 131.256 31.6942 131.179 31.6038C131.102 31.5134 131.224 31.4004 131.464 31.2287C131.782 31.0059 132.161 30.8875 132.549 30.8897C132.933 30.8892 133.308 31.0094 133.62 31.2332C133.855 31.4095 133.932 31.5722 133.891 31.6129Z" fill="#263238"/>
<path d="M125.958 32.3994C125.961 32.5781 125.893 32.7506 125.77 32.88C125.646 33.0093 125.477 33.085 125.299 33.0909C125.211 33.0983 125.124 33.0882 125.04 33.0611C124.957 33.034 124.88 32.9905 124.814 32.9332C124.748 32.876 124.694 32.806 124.655 32.7275C124.617 32.649 124.594 32.5636 124.589 32.4762C124.586 32.297 124.654 32.124 124.777 31.9939C124.901 31.8639 125.07 31.7872 125.249 31.7801C125.336 31.7727 125.425 31.783 125.508 31.8104C125.592 31.8377 125.669 31.8816 125.735 31.9394C125.801 31.9971 125.855 32.0676 125.893 32.1467C125.932 32.2257 125.954 32.3116 125.958 32.3994Z" fill="#263238"/>
<path d="M126.623 31.7666C126.537 31.8524 126.018 31.4727 125.267 31.4727C124.517 31.4727 123.984 31.8479 123.911 31.7575C123.839 31.6671 123.957 31.5586 124.192 31.3823C124.511 31.16 124.892 31.0431 125.281 31.0479C125.665 31.0442 126.04 31.163 126.352 31.3869C126.587 31.5632 126.664 31.7259 126.623 31.7666Z" fill="#263238"/>
<path d="M129.317 37.2403C129.707 37.1187 130.111 37.0444 130.519 37.0188C130.709 37.0188 130.885 36.9646 130.917 36.8335C130.932 36.6382 130.888 36.4428 130.79 36.273C130.61 35.821 130.424 35.3419 130.23 34.8402C129.448 32.7926 128.874 31.1157 128.969 31.084C129.064 31.0524 129.751 32.6841 130.528 34.7272C130.713 35.2334 130.894 35.7125 131.066 36.1736C131.185 36.4013 131.22 36.6637 131.165 36.9148C131.139 36.9824 131.097 37.0428 131.043 37.0907C130.989 37.1387 130.924 37.173 130.854 37.1906C130.751 37.2192 130.644 37.2344 130.537 37.2358C130.132 37.287 129.722 37.2885 129.317 37.2403Z" fill="#263238"/>
<path d="M129.851 45.9865C127.328 46.0299 124.844 45.3728 122.673 44.0881C122.732 44.0881 124.648 47.8126 129.778 47.2521L129.851 45.9865Z" fill="#EB996E"/>
<path d="M129.01 39.0212C128.867 38.8463 128.684 38.7097 128.475 38.6237C128.267 38.5377 128.041 38.505 127.816 38.5285C127.653 38.5445 127.495 38.5926 127.351 38.6702C127.206 38.7478 127.079 38.8533 126.976 38.9805C126.871 39.1057 126.81 39.2609 126.8 39.4236C126.79 39.5862 126.833 39.7477 126.921 39.8845C127.041 40.0156 127.196 40.1086 127.368 40.152C127.54 40.1954 127.721 40.1873 127.889 40.1286C128.235 39.996 128.551 39.7963 128.82 39.541C128.903 39.4809 128.973 39.4058 129.028 39.3195C129.055 39.2796 129.07 39.2323 129.07 39.1839C129.07 39.1355 129.055 39.0882 129.028 39.0483" fill="#FF725E"/>
<path d="M127.143 37.7556C127.265 37.7556 127.269 38.5511 127.956 39.1116C128.643 39.672 129.498 39.5636 129.502 39.6992C129.507 39.8348 129.312 39.8574 128.955 39.8664C128.484 39.8739 128.026 39.7137 127.663 39.4144C127.312 39.1298 127.087 38.7194 127.034 38.2708C127.012 37.968 127.089 37.751 127.143 37.7556Z" fill="#263238"/>
<path d="M126.953 30.4693C126.881 30.6727 126.144 30.5778 125.276 30.6818C124.408 30.7857 123.708 31.0298 123.595 30.849C123.54 30.7631 123.662 30.5733 123.947 30.397C124.323 30.1555 124.749 30.0038 125.193 29.9536C125.636 29.9034 126.085 29.9562 126.505 30.1077C126.826 30.2162 126.985 30.3744 126.953 30.4693Z" fill="#263238"/>
<path d="M133.611 29.4704C133.484 29.6422 132.974 29.4704 132.363 29.4704C131.753 29.4704 131.229 29.5834 131.111 29.4116C131.057 29.3258 131.139 29.154 131.365 28.9958C131.668 28.8042 132.022 28.7075 132.381 28.718C132.74 28.7284 133.088 28.8456 133.38 29.0546C133.597 29.2173 133.67 29.38 133.611 29.4704Z" fill="#263238"/>
<path d="M117.027 42.9988C118.5 43.2971 118.632 42.5468 119.739 41.5252C120.285 41.0086 120.703 40.3721 120.96 39.666C121.217 38.96 121.307 38.2038 121.222 37.4572C121.054 36.1419 120.345 34.804 120.801 33.5565C121.402 31.9112 123.712 31.405 124.322 29.7642C124.679 28.806 124.358 27.6895 124.774 26.7539C125.19 25.8182 126.081 25.3708 126.98 25.0453C127.879 24.7199 128.847 24.4939 129.606 23.9063C130.365 23.3187 130.831 22.2068 130.343 21.3841C126.343 21.8634 122.415 22.8178 118.641 24.2272C117.768 24.5526 116.833 24.9459 116.335 25.7233C115.838 26.5008 115.811 27.6082 115.861 28.5935C116.084 33.4149 116.307 38.2241 116.53 43.0214" fill="#263238"/>
<path d="M113.655 32.092C113.571 31.2009 113.198 30.3617 112.593 29.7019C111.988 29.0422 111.185 28.5979 110.304 28.4368C109.424 28.2757 108.515 28.4064 107.716 28.8092C106.916 29.212 106.27 29.8647 105.876 30.6682C105.135 32.1824 105.392 34.022 106.089 35.5588C106.911 37.3668 108.602 39.0483 110.609 38.9579C112.493 38.872 114.008 37.2222 114.55 35.4142C115.092 33.6062 114.875 31.6762 114.649 29.8049" fill="#263238"/>
<path d="M112.607 39.4099C112.493 39.3257 112.398 39.2197 112.326 39.098C112.116 38.7748 111.98 38.4089 111.929 38.0268C111.85 37.463 111.867 36.8899 111.978 36.3318C112.087 35.7035 112.299 35.0436 112.43 34.343C112.602 33.696 112.642 33.0213 112.548 32.3587C112.439 31.762 112.155 31.2558 112.033 30.7857C111.912 30.4155 111.901 30.0185 112.001 29.6422C112.087 29.3755 112.2 29.267 112.209 29.276C112.218 29.2851 112.141 29.4116 112.091 29.6648C112.032 30.0245 112.067 30.3933 112.191 30.736C112.412 31.2516 112.602 31.7799 112.76 32.318C112.873 33.0089 112.839 33.7157 112.661 34.3927C112.503 35.1068 112.286 35.7487 112.168 36.3724C112.052 36.908 112.018 37.4584 112.069 38.0042C112.145 38.5059 112.328 38.9854 112.607 39.4099Z" fill="#455A64"/>
<path d="M112.548 32.996C112.336 33.3214 112.055 33.5961 111.725 33.8006C110.953 34.3443 110.036 34.6436 109.093 34.6597C108.149 34.6759 107.222 34.408 106.432 33.891C106.097 33.6982 105.809 33.4343 105.587 33.118C105.614 33.0864 105.921 33.4028 106.523 33.7508C107.301 34.2074 108.189 34.4405 109.091 34.4245C109.993 34.4086 110.873 34.1442 111.635 33.6604C112.204 33.2762 112.503 32.9463 112.548 32.996Z" fill="#455A64"/>
<path d="M112.263 33.8141C112.17 34.1216 112.016 34.4073 111.811 34.6548C111.352 35.2834 110.772 35.8139 110.106 36.2152C109.439 36.6165 108.699 36.8805 107.928 36.9917C107.614 37.0558 107.289 37.0558 106.975 36.9917C107.28 36.9175 107.589 36.8602 107.901 36.8199C108.636 36.6667 109.341 36.3917 109.985 36.0063C110.626 35.6178 111.199 35.126 111.68 34.5509C112.046 34.1124 112.231 33.796 112.263 33.8141Z" fill="#455A64"/>
<path d="M113.614 41.1998C113.614 41.1998 113.592 41.1998 113.556 41.1365C113.5 41.0681 113.451 40.9956 113.406 40.9195C113.234 40.6313 113.114 40.3144 113.054 39.9839C112.953 39.4575 112.982 38.9143 113.14 38.4019C113.343 37.7122 113.785 37.1176 114.387 36.725C115.02 36.273 115.847 35.9656 116.376 35.2515C116.508 35.0733 116.602 34.8697 116.652 34.6534C116.702 34.4372 116.706 34.213 116.665 33.9949C116.563 33.518 116.412 33.0529 116.213 32.6073C116.003 32.0981 115.901 31.5509 115.912 31.0001C115.924 30.4493 116.05 29.907 116.281 29.4071C116.524 28.8703 116.899 28.4038 117.371 28.0511C117.862 27.7084 118.422 27.4756 119.011 27.3686C119.59 27.2375 120.168 27.1607 120.706 26.998C121.232 26.8564 121.715 26.5879 122.112 26.216C122.471 25.8304 122.689 25.3351 122.731 24.8103C122.78 24.287 122.863 23.7676 122.98 23.2554C123.217 22.2924 123.718 21.4144 124.426 20.7197C125.048 20.1228 125.836 19.7287 126.686 19.5897C127.303 19.4849 127.938 19.5565 128.516 19.7964C129.094 20.0364 129.593 20.4347 129.954 20.9457C130.146 21.2194 130.287 21.5257 130.37 21.8497C130.403 21.9612 130.422 22.0768 130.424 22.1932C130.322 21.762 130.136 21.3551 129.877 20.9954C129.568 20.5815 129.163 20.2482 128.698 20.0236C128.079 19.7289 127.383 19.6357 126.709 19.7569C125.892 19.8973 125.137 20.2818 124.544 20.8598C123.877 21.5378 123.408 22.3849 123.188 23.3096C123.073 23.8206 122.991 24.3385 122.944 24.86C122.895 25.4325 122.658 25.9729 122.27 26.3968C121.84 26.7962 121.319 27.0834 120.751 27.233C120.191 27.4048 119.608 27.4816 119.043 27.6127C118.484 27.714 117.953 27.9311 117.484 28.25C117.044 28.5786 116.695 29.0122 116.467 29.5111C116.248 29.9832 116.128 30.4953 116.116 31.0155C116.103 31.5357 116.198 32.0529 116.394 32.535C116.596 32.9949 116.747 33.4753 116.846 33.9678C116.89 34.2125 116.883 34.4636 116.825 34.7055C116.768 34.9474 116.661 35.1748 116.512 35.3735C115.924 36.1419 115.074 36.4402 114.46 36.8696C113.88 37.2347 113.449 37.7938 113.244 38.4471C113.081 38.9376 113.039 39.4602 113.122 39.9704C113.206 40.4077 113.374 40.8249 113.614 41.1998Z" fill="#455A64"/>
<path d="M113.972 26.2476C113.932 26.1705 113.909 26.0858 113.904 25.999C113.886 25.7491 113.949 25.5 114.085 25.2894C114.296 24.949 114.614 24.6883 114.989 24.5481C115.487 24.3895 116.019 24.3723 116.526 24.4984C117.086 24.6069 117.669 24.8284 118.306 24.9504C118.633 25.0414 118.974 25.0615 119.309 25.0093C119.643 24.957 119.963 24.8337 120.246 24.6476C120.815 24.1956 121.1 23.4633 121.389 22.722C121.683 21.9261 122.101 21.1816 122.628 20.5163C123.652 19.2119 125.085 18.2888 126.696 17.8947C127.401 17.7281 128.138 17.7468 128.834 17.9489C129.436 18.141 129.972 18.4999 130.379 18.984C130.723 19.382 130.93 19.8792 130.972 20.4033C131.009 20.7947 130.948 21.1891 130.795 21.5514C130.704 21.78 130.567 21.9877 130.393 22.1616C130.337 22.2275 130.27 22.2826 130.194 22.3243C130.415 22.0908 130.59 21.8178 130.709 21.5197C130.84 21.1676 130.884 20.7897 130.84 20.4168C130.79 19.9242 130.584 19.4604 130.253 19.0925C129.851 18.6473 129.333 18.3232 128.757 18.1568C128.091 17.9762 127.39 17.9653 126.718 18.1252C125.168 18.5244 123.792 19.4236 122.804 20.6835C122.289 21.3216 121.879 22.0371 121.588 22.8034C121.29 23.5447 120.996 24.3357 120.359 24.8193C120.051 25.0498 119.684 25.1878 119.301 25.2171C118.95 25.2439 118.596 25.2195 118.252 25.1448C117.592 25.0046 117.018 24.7741 116.476 24.6611C115.998 24.5288 115.494 24.5288 115.016 24.6611C114.664 24.7842 114.362 25.0172 114.153 25.3256C114.017 25.5188 113.944 25.7493 113.945 25.9855C113.954 26.1618 113.985 26.2431 113.972 26.2476Z" fill="#455A64"/>
<path d="M188.434 205.176C188.455 205.113 188.481 205.051 188.511 204.991C188.57 204.86 188.656 204.688 188.76 204.462C189.06 203.78 189.304 203.074 189.487 202.351C190.067 199.659 190.045 196.872 189.424 194.188C189.04 192.331 188.534 190.501 187.91 188.71C187.268 186.762 186.527 184.696 185.917 182.468C185.229 180.139 184.898 177.719 184.936 175.29C185.026 172.754 185.777 170.219 186.604 167.697C187.431 165.174 188.281 162.702 188.538 160.22C188.827 157.833 188.352 155.415 187.182 153.314C186.088 151.298 184.714 149.571 183.684 147.786C182.722 146.131 182.013 144.34 181.582 142.475C180.96 139.773 180.914 136.97 181.446 134.249C181.636 133.254 181.924 132.28 182.305 131.342C182.294 131.408 182.278 131.473 182.255 131.537C182.21 131.672 182.156 131.857 182.079 132.092C181.93 132.585 181.736 133.313 181.546 134.267C181.057 136.975 181.131 139.755 181.763 142.434C182.202 144.277 182.914 146.044 183.874 147.677C184.9 149.44 186.283 151.158 187.395 153.196C188.601 155.336 189.096 157.804 188.809 160.243C188.552 162.77 187.693 165.256 186.87 167.778C186.048 170.3 185.302 172.804 185.207 175.299C185.172 177.702 185.497 180.097 186.17 182.405C186.766 184.624 187.526 186.69 188.136 188.638C188.752 190.441 189.249 192.283 189.623 194.152C190.315 197.592 190.12 200.48 189.623 202.378C189.427 203.103 189.165 203.808 188.841 204.485C188.728 204.706 188.638 204.878 188.57 205.005C188.532 205.067 188.486 205.125 188.434 205.176Z" fill="#263238"/>
<path d="M185.067 149.549C185.067 149.549 182.974 142.859 186.726 138.945C186.755 138.913 186.792 138.89 186.834 138.878C186.876 138.866 186.92 138.867 186.961 138.879C187.003 138.891 187.04 138.915 187.069 138.947C187.097 138.98 187.116 139.02 187.123 139.062C187.322 140.165 187.58 143.528 185.067 149.549Z" fill="#FF725E"/>
<path d="M186.319 141.173C186.313 141.588 186.266 142.001 186.179 142.407C186.039 143.257 185.876 144.256 185.7 145.359L185.248 148.306C185.214 148.719 185.14 149.128 185.026 149.526C184.993 149.112 185.006 148.695 185.067 148.283C185.135 147.519 185.27 146.475 185.46 145.313C185.65 144.152 185.849 143.121 186.012 142.375C186.068 141.964 186.171 141.561 186.319 141.173Z" fill="#263238"/>
<path d="M187.521 165.324C187.521 165.324 188.801 158.431 193.949 156.736C193.989 156.721 194.033 156.718 194.075 156.727C194.117 156.736 194.155 156.756 194.186 156.786C194.217 156.815 194.239 156.853 194.25 156.894C194.261 156.936 194.26 156.979 194.247 157.02C193.908 158.082 192.552 161.174 187.521 165.324Z" fill="#FF725E"/>
<path d="M192.552 158.507C192.349 158.869 192.113 159.211 191.847 159.529L190.039 161.915L188.231 164.302C188.006 164.65 187.75 164.976 187.467 165.278C187.624 164.894 187.829 164.531 188.077 164.198C188.497 163.552 189.108 162.688 189.817 161.757C190.527 160.826 191.173 159.999 191.679 159.416C191.932 159.078 192.225 158.773 192.552 158.507Z" fill="#263238"/>
<path d="M186.129 182.608C186.129 182.608 185.352 175.647 189.781 172.519C189.816 172.493 189.857 172.477 189.9 172.473C189.943 172.469 189.986 172.477 190.025 172.496C190.063 172.516 190.096 172.545 190.118 172.582C190.141 172.619 190.152 172.661 190.152 172.705C190.138 173.826 189.741 177.184 186.129 182.608Z" fill="#FF725E"/>
<path d="M188.958 174.621C188.871 175.027 188.746 175.424 188.583 175.805C188.289 176.614 187.937 177.564 187.553 178.612C187.168 179.661 186.825 180.61 186.531 181.419C186.419 181.818 186.268 182.204 186.079 182.572C186.124 182.159 186.216 181.752 186.355 181.36C186.567 180.624 186.902 179.616 187.309 178.522C187.715 177.428 188.109 176.443 188.411 175.738C188.553 175.347 188.736 174.973 188.958 174.621Z" fill="#263238"/>
<path d="M190.007 199.992C190.007 199.992 189.478 193.004 194.021 190.048C194.057 190.025 194.098 190.012 194.141 190.011C194.183 190.01 194.226 190.02 194.263 190.041C194.3 190.062 194.331 190.093 194.352 190.13C194.373 190.167 194.383 190.209 194.382 190.251C194.328 191.359 193.813 194.69 190.007 199.992Z" fill="#FF725E"/>
<path d="M193.122 192.1C193.02 192.502 192.88 192.894 192.706 193.271C192.376 194.066 191.996 195.002 191.571 196.037C191.146 197.072 190.776 198.008 190.45 198.803C190.325 199.199 190.16 199.58 189.958 199.942C190.018 199.53 190.125 199.127 190.278 198.74C190.518 198.012 190.884 197.018 191.332 195.937C191.779 194.857 192.204 193.89 192.534 193.198C192.687 192.811 192.884 192.442 193.122 192.1Z" fill="#263238"/>
<path d="M182.061 143.673C182.061 143.673 175.846 140.427 175.733 135.008C175.732 134.965 175.743 134.923 175.765 134.886C175.787 134.848 175.818 134.818 175.856 134.798C175.893 134.777 175.936 134.767 175.979 134.769C176.022 134.771 176.063 134.785 176.099 134.809C177.012 135.446 179.57 137.643 182.061 143.673Z" fill="#FF725E"/>
<path d="M177.017 136.87C177.305 137.168 177.564 137.493 177.79 137.842C178.296 138.538 178.888 139.356 179.539 140.265C180.19 141.173 180.791 141.982 181.297 142.678C181.563 142.996 181.801 143.336 182.007 143.695C181.686 143.43 181.399 143.127 181.152 142.791C180.66 142.204 180.009 141.368 179.344 140.414C178.68 139.46 178.07 138.606 177.654 137.946C177.402 137.612 177.188 137.251 177.017 136.87Z" fill="#263238"/>
<path d="M188.728 158.037C188.728 158.037 182.332 155.176 181.88 149.77C181.876 149.728 181.883 149.685 181.902 149.646C181.92 149.607 181.95 149.575 181.986 149.552C182.022 149.529 182.064 149.516 182.106 149.516C182.149 149.515 182.191 149.527 182.228 149.549C183.191 150.132 185.876 152.17 188.728 158.037Z" fill="#FF725E"/>
<path d="M183.281 151.551C183.588 151.824 183.867 152.127 184.113 152.455L186.007 154.765L187.91 157.07C188.194 157.372 188.451 157.699 188.678 158.046C188.343 157.8 188.039 157.513 187.774 157.192C187.245 156.636 186.549 155.836 185.808 154.932C185.067 154.028 184.416 153.228 183.964 152.586C183.697 152.268 183.468 151.921 183.281 151.551Z" fill="#263238"/>
<path d="M185.049 174.056C185.049 174.056 180.655 168.596 182.716 163.579C182.732 163.539 182.758 163.504 182.793 163.478C182.827 163.453 182.868 163.437 182.911 163.433C182.953 163.429 182.996 163.438 183.035 163.457C183.073 163.476 183.105 163.506 183.128 163.543C183.72 164.496 185.18 167.534 185.049 174.056Z" fill="#FF725E"/>
<path d="M183.15 165.803C183.299 166.191 183.406 166.594 183.471 167.005C183.657 167.846 183.869 168.813 184.109 169.925L184.75 172.84C184.866 173.238 184.946 173.645 184.99 174.056C184.804 173.684 184.663 173.291 184.57 172.885C184.353 172.149 184.118 171.123 183.851 169.979C183.584 168.836 183.399 167.796 183.291 167.037C183.198 166.632 183.151 166.218 183.15 165.803Z" fill="#263238"/>
<path d="M189.388 192.909C189.388 192.909 183.06 189.939 182.68 184.529C182.677 184.486 182.686 184.444 182.705 184.406C182.725 184.368 182.755 184.336 182.791 184.314C182.828 184.292 182.87 184.281 182.912 184.281C182.955 184.282 182.997 184.294 183.033 184.317C183.996 184.913 186.644 186.997 189.388 192.909Z" fill="#FF725E"/>
<path d="M184.059 186.332C184.362 186.618 184.637 186.933 184.877 187.273L186.735 189.614L188.593 191.946C188.874 192.252 189.127 192.584 189.348 192.936C189.012 192.684 188.709 192.393 188.444 192.068C187.928 191.503 187.241 190.712 186.518 189.777C185.795 188.841 185.162 188.009 184.71 187.381C184.455 187.057 184.237 186.705 184.059 186.332Z" fill="#263238"/>
<path d="M202.044 165.36C202.049 165.411 202.049 165.462 202.044 165.513C202.044 165.635 202.044 165.785 202.044 165.965C202.044 166.386 201.999 166.955 201.967 167.665L201.637 173.731C201.185 176.266 199.893 179.073 198.161 181.803C196.887 183.815 195.553 185.641 194.405 187.34C193.357 188.823 192.416 190.379 191.589 191.996C191.044 193.092 190.603 194.236 190.27 195.413C190.157 195.829 190.075 196.159 190.025 196.38C190.006 196.496 189.976 196.61 189.935 196.719C189.936 196.602 189.95 196.486 189.976 196.371C190.007 196.141 190.075 195.811 190.17 195.386C190.466 194.189 190.886 193.025 191.422 191.915C192.232 190.279 193.161 188.704 194.202 187.205C195.345 185.492 196.674 183.666 197.94 181.663C199.662 178.951 200.946 176.181 201.416 173.686C201.592 171.2 201.737 169.116 201.841 167.624C201.899 166.919 201.945 166.35 201.981 165.929C201.981 165.753 202.012 165.604 202.026 165.477C202.04 165.351 202.044 165.36 202.044 165.36Z" fill="#263238"/>
<path d="M198.261 181.297C198.261 181.297 200.95 174.825 197.569 170.585C197.543 170.55 197.508 170.524 197.468 170.508C197.428 170.492 197.384 170.488 197.342 170.496C197.299 170.504 197.26 170.524 197.228 170.553C197.197 170.583 197.174 170.62 197.162 170.662C196.864 171.76 196.308 175.073 198.261 181.297Z" fill="#FF725E"/>
<path d="M197.773 172.84C197.889 173.239 197.96 173.65 197.985 174.065C198.08 174.825 198.188 175.873 198.27 177.044C198.351 178.215 198.396 179.272 198.396 180.036C198.418 180.452 198.392 180.869 198.32 181.279C198.244 180.872 198.208 180.459 198.211 180.045C198.152 179.186 198.084 178.178 198.008 177.062C197.931 175.946 197.863 174.942 197.8 174.083C197.75 173.671 197.741 173.254 197.773 172.84Z" fill="#263238"/>
<g opacity="0.3">
<path opacity="0.3" d="M198.261 181.297C198.261 181.297 200.95 174.825 197.569 170.585C197.543 170.55 197.508 170.524 197.468 170.508C197.428 170.492 197.384 170.488 197.342 170.496C197.299 170.504 197.26 170.524 197.228 170.553C197.197 170.583 197.174 170.62 197.162 170.662C196.864 171.76 196.308 175.073 198.261 181.297Z" fill="black"/>
</g>
<path d="M189.935 196.891C189.935 196.891 192.091 190.22 188.375 186.269C188.347 186.237 188.309 186.214 188.268 186.202C188.227 186.19 188.183 186.19 188.141 186.202C188.1 186.214 188.063 186.237 188.034 186.269C188.005 186.301 187.985 186.34 187.978 186.382C187.765 187.485 187.485 190.843 189.935 196.891Z" fill="#FF725E"/>
<path d="M188.764 188.484C188.909 188.873 189.013 189.276 189.076 189.686C189.23 190.437 189.424 191.494 189.6 192.633C189.777 193.772 189.903 194.844 189.966 195.608C190.025 196.019 190.033 196.437 189.989 196.851C189.884 196.449 189.815 196.039 189.781 195.626C189.655 194.776 189.505 193.777 189.329 192.674C189.153 191.571 189.008 190.572 188.877 189.718C188.797 189.312 188.759 188.898 188.764 188.484Z" fill="#263238"/>
<g opacity="0.3">
<path opacity="0.3" d="M189.935 196.891C189.935 196.891 192.091 190.22 188.375 186.269C188.347 186.237 188.309 186.214 188.268 186.202C188.227 186.19 188.183 186.19 188.141 186.202C188.1 186.214 188.063 186.237 188.034 186.269C188.005 186.301 187.985 186.34 187.978 186.382C187.765 187.485 187.485 190.843 189.935 196.891Z" fill="black"/>
</g>
<path d="M201.687 173.387C201.687 173.387 207.427 169.369 206.848 163.977C206.844 163.934 206.829 163.893 206.803 163.859C206.777 163.825 206.742 163.799 206.702 163.783C206.662 163.768 206.619 163.764 206.577 163.772C206.535 163.779 206.496 163.799 206.464 163.827C205.628 164.578 203.4 167.086 201.687 173.387Z" fill="#FF725E"/>
<g opacity="0.3">
<path opacity="0.3" d="M201.687 173.387C201.687 173.387 207.427 169.369 206.848 163.977C206.844 163.934 206.829 163.893 206.803 163.859C206.777 163.825 206.742 163.799 206.702 163.783C206.662 163.768 206.619 163.764 206.577 163.772C206.535 163.779 206.496 163.799 206.464 163.827C205.628 164.578 203.4 167.086 201.687 173.387Z" fill="black"/>
</g>
<path d="M205.809 165.992C205.692 166.39 205.531 166.774 205.33 167.136C205.005 167.832 204.53 168.777 203.974 169.807C203.418 170.838 202.885 171.751 202.473 172.397C202.271 172.762 202.025 173.1 201.741 173.405C201.896 173.021 202.087 172.652 202.311 172.302C202.727 171.548 203.215 170.662 203.744 169.681L205.167 167.055C205.344 166.679 205.559 166.323 205.809 165.992Z" fill="#263238"/>
<path d="M192.249 190.292C192.249 190.292 199.174 189.212 201.027 184.118C201.043 184.078 201.047 184.034 201.04 183.992C201.032 183.95 201.013 183.91 200.984 183.879C200.956 183.847 200.919 183.823 200.877 183.811C200.836 183.799 200.793 183.799 200.751 183.81C199.671 184.104 196.543 185.37 192.249 190.292Z" fill="#FF725E"/>
<g opacity="0.3">
<path opacity="0.3" d="M192.249 190.292C192.249 190.292 199.174 189.212 201.027 184.118C201.043 184.078 201.047 184.034 201.04 183.992C201.032 183.95 201.013 183.91 200.984 183.879C200.956 183.847 200.919 183.823 200.877 183.811C200.836 183.799 200.793 183.799 200.751 183.81C199.671 184.104 196.543 185.37 192.249 190.292Z" fill="black"/>
</g>
<path d="M199.21 185.456C198.929 185.761 198.615 186.035 198.274 186.274C197.678 186.753 196.833 187.39 195.883 188.082C194.934 188.773 194.048 189.343 193.393 189.745C193.051 189.982 192.682 190.177 192.294 190.328C192.603 190.053 192.936 189.807 193.289 189.591L195.73 187.865L198.166 186.134C198.489 185.871 198.839 185.644 199.21 185.456Z" fill="#263238"/>
<path d="M185.645 203.02L183.625 216.612H196.213L194.581 203.02H185.645Z" fill="#455A64"/>
<path d="M195.083 207.233C193.394 207.364 191.7 207.408 190.007 207.364C188.314 207.408 186.62 207.364 184.931 207.233C186.62 207.102 188.314 207.058 190.007 207.102C191.7 207.058 193.394 207.102 195.083 207.233Z" fill="#263238"/>
<path d="M195.332 208.313C195.332 208.386 192.986 208.444 190.093 208.444C187.2 208.444 184.868 208.372 184.868 208.313C184.868 208.254 187.214 208.182 190.111 208.182C193.009 208.182 195.332 208.241 195.332 208.313Z" fill="#263238"/>
<path d="M35.744 191.802C36.3803 191.909 36.9884 192.144 37.532 192.492C38.0757 192.84 38.5436 193.294 38.908 193.827C39.628 194.902 40.0919 196.128 40.264 197.411C40.6753 199.87 40.0108 202.663 39.0978 204.987C36.5892 203.807 35.2513 200.887 34.6682 199.359C33.7642 196.95 33.5382 192.028 35.7259 191.802" fill="#FF725E"/>
<path d="M42.8133 208.449C42.4355 207.833 42.2277 207.128 42.211 206.405C42.1944 205.683 42.3694 204.969 42.7183 204.336C43.0767 203.708 43.5567 203.159 44.1303 202.719C44.7039 202.28 45.3595 201.96 46.0586 201.777C46.3701 201.658 46.7038 201.609 47.0364 201.632C47.369 201.655 47.6925 201.751 47.9841 201.913C48.2289 202.107 48.4171 202.364 48.5291 202.655C48.6412 202.947 48.6731 203.264 48.6215 203.572C48.5085 204.187 48.2358 204.763 47.8305 205.24C46.5242 206.93 44.9467 208.322 42.8133 208.449Z" fill="#FF725E"/>
<path d="M42.1806 216.241C42.1282 216.075 42.1008 215.901 42.0993 215.726C42.0631 215.392 42.0224 214.903 41.9863 214.302C41.872 212.729 41.9693 211.148 42.2756 209.601C42.5968 208.038 43.3338 206.591 44.409 205.411C44.7419 205.066 45.1152 204.763 45.5209 204.507C45.6582 204.406 45.8107 204.326 45.9729 204.272C45.4601 204.658 44.9807 205.085 44.5401 205.552C43.5351 206.734 42.8434 208.15 42.5287 209.669C42.2315 211.195 42.1102 212.749 42.1671 214.302C42.2105 214.948 42.2151 215.595 42.1806 216.241Z" fill="#263238"/>
<path d="M36.3271 195.535C36.4564 195.793 36.5623 196.063 36.6435 196.34C36.8289 196.864 37.0955 197.623 37.3984 198.568C38.0131 200.457 38.8222 203.088 39.6584 206.004C40.4946 208.919 41.1635 211.586 41.6201 213.52C41.8506 214.488 42.0269 215.27 42.1444 215.816C42.2171 216.095 42.267 216.379 42.2935 216.666C42.1857 216.399 42.0995 216.124 42.0359 215.844C41.8822 215.256 41.6743 214.488 41.4302 213.584C40.9195 211.663 40.2098 209.009 39.3917 206.094C38.5736 203.179 37.7916 200.543 37.2221 198.64L36.5531 196.38C36.4545 196.105 36.3789 195.823 36.3271 195.535Z" fill="#263238"/>
<path d="M39.4732 210.79C38.8474 209.401 37.8993 208.181 36.7076 207.231C35.5159 206.281 34.1149 205.63 32.6208 205.33C31.8615 205.185 30.9258 205.203 30.501 205.854C30.0761 206.505 30.4422 207.373 30.8987 207.997C31.8728 209.29 33.2087 210.266 34.7374 210.8C36.2661 211.335 37.9189 211.403 39.4867 210.998" fill="#FF725E"/>
<path d="M33.4482 207.518C33.6156 207.505 33.7839 207.522 33.9454 207.567C34.1409 207.594 34.3343 207.635 34.524 207.689C34.7773 207.748 35.0265 207.824 35.2698 207.915C35.9142 208.137 36.5338 208.425 37.1185 208.774C38.5595 209.629 39.7795 210.81 40.6802 212.223C41.0396 212.795 41.3424 213.4 41.5842 214.031C41.6799 214.274 41.7629 214.521 41.8328 214.772C41.8936 214.96 41.9405 215.152 41.973 215.346C42.0201 215.508 42.043 215.675 42.0408 215.844C41.9865 215.844 41.8509 215.152 41.3989 214.108C41.1349 213.498 40.8173 212.912 40.4497 212.359C39.9919 211.686 39.4696 211.059 38.8903 210.487C38.3007 209.927 37.6572 209.426 36.9693 208.991C36.4056 208.634 35.8093 208.332 35.1884 208.087C34.1534 207.685 33.4482 207.567 33.4482 207.518Z" fill="#263238"/>
<path d="M163.986 43.1344C163.986 43.27 164.967 43.3784 166.174 43.3784C167.38 43.3784 168.361 43.27 168.361 43.1344C168.361 42.9988 167.385 42.8948 166.174 42.8948C164.962 42.8948 163.986 43.0033 163.986 43.1344Z" fill="#FF725E"/>
<path d="M161.663 37.1815C161.527 37.1815 161.418 38.1759 161.418 39.4009C161.418 40.6258 161.527 41.6247 161.663 41.6247C161.798 41.6247 161.902 40.6303 161.902 39.4009C161.902 38.1714 161.816 37.1815 161.663 37.1815Z" fill="#FF725E"/>
<path d="M159.185 42.9942C159.185 42.8586 158.205 42.7502 156.998 42.7502C155.791 42.7502 154.81 42.8586 154.81 42.9942C154.81 43.1299 155.786 43.2338 156.998 43.2338C158.209 43.2338 159.185 43.1253 159.185 42.9942Z" fill="#FF725E"/>
<path d="M161.509 48.9471C161.644 48.9471 161.753 47.9527 161.753 46.7278C161.753 45.5028 161.644 44.5039 161.509 44.5039C161.373 44.5039 161.269 45.4983 161.269 46.7278C161.269 47.9572 161.364 48.9471 161.509 48.9471Z" fill="#FF725E"/>
<path d="M157.974 46.3933C158.074 46.4792 158.507 46.1311 158.937 45.6158C159.366 45.1006 159.633 44.6169 159.529 44.531C159.425 44.4452 158.996 44.7932 158.566 45.304C158.137 45.8147 157.87 46.3074 157.974 46.3933Z" fill="#FF725E"/>
<path d="M158.2 39.6404C158.105 39.7353 158.39 40.1783 158.837 40.6258C159.285 41.0733 159.719 41.3671 159.814 41.2721C159.908 41.1772 159.624 40.7343 159.181 40.2868C158.738 39.8393 158.272 39.5455 158.2 39.6404Z" fill="#FF725E"/>
<path d="M163.195 41.3625C163.281 41.462 163.692 41.2586 164.099 40.9105C164.505 40.5625 164.799 40.1873 164.713 40.0879C164.628 39.9885 164.216 40.1873 163.809 40.5399C163.403 40.8924 163.109 41.2586 163.195 41.3625Z" fill="#FF725E"/>
<path d="M163.389 44.3367C163.294 44.4271 163.538 44.861 163.945 45.304C164.352 45.7469 164.759 46.0362 164.849 45.9458C164.939 45.8554 164.7 45.4215 164.293 44.9785C163.886 44.5356 163.489 44.2463 163.389 44.3367Z" fill="#FF725E"/>
<path d="M55.8174 95.3358C56.2165 95.4729 56.6408 95.5208 57.0604 95.476C57.48 95.5208 57.9043 95.4729 58.3034 95.3358C57.9036 95.2017 57.4796 95.1554 57.0604 95.2002C56.6411 95.1554 56.2171 95.2017 55.8174 95.3358Z" fill="#FF725E"/>
<path d="M54.4975 91.9549C54.3166 92.7859 54.3166 93.6461 54.4975 94.4771C54.6843 93.6467 54.6843 92.7852 54.4975 91.9549Z" fill="#FF725E"/>
<path d="M53.092 95.2545C52.6922 95.1203 52.2682 95.0741 51.849 95.1189C51.4297 95.0741 51.0057 95.1203 50.606 95.2545C51.005 95.3916 51.4294 95.4394 51.849 95.3946C52.2686 95.4394 52.6929 95.3916 53.092 95.2545Z" fill="#FF725E"/>
<path d="M54.412 98.6354C54.5988 97.8051 54.5988 96.9436 54.412 96.1133C54.2312 96.9443 54.2312 97.8044 54.412 98.6354Z" fill="#FF725E"/>
<path d="M52.4049 97.18C52.4636 97.2297 52.7077 97.0308 52.9518 96.728C53.1959 96.4252 53.345 96.1585 53.2863 96.1088C53.2275 96.0591 52.9834 96.2579 52.7394 96.5608C52.4953 96.8636 52.3461 97.1393 52.4049 97.18Z" fill="#FF725E"/>
<path d="M52.5179 93.3515C52.4682 93.4058 52.6264 93.6544 52.8795 93.912C53.1326 94.1697 53.3812 94.3324 53.4355 94.2782C53.4897 94.2239 53.3315 93.9753 53.0784 93.7177C52.8253 93.46 52.5721 93.2973 52.5179 93.3515Z" fill="#FF725E"/>
<path d="M55.37 94.3279C55.4152 94.3867 55.6502 94.2737 55.8943 94.0702C56.1384 93.8668 56.2921 93.6589 56.2423 93.6182C56.1926 93.5776 55.9576 93.677 55.718 93.8759C55.4785 94.0748 55.3203 94.2691 55.37 94.3279Z" fill="#FF725E"/>
<path d="M55.4784 96.0184C55.4242 96.0681 55.5643 96.3167 55.7949 96.5698C56.0254 96.8229 56.2468 96.9856 56.3146 96.9314C56.3824 96.8772 56.2288 96.6331 55.9982 96.3845C55.7677 96.1359 55.5372 95.9687 55.4784 96.0184Z" fill="#FF725E"/>
<path d="M166.241 122.13C167.06 122.311 167.908 122.311 168.727 122.13C167.909 121.944 167.059 121.944 166.241 122.13Z" fill="#FF725E"/>
<path d="M164.921 118.749C164.74 119.58 164.74 120.441 164.921 121.272C165.108 120.441 165.108 119.58 164.921 118.749Z" fill="#FF725E"/>
<path d="M163.516 122.04C162.698 121.853 161.848 121.853 161.03 122.04C161.849 122.221 162.697 122.221 163.516 122.04Z" fill="#FF725E"/>
<path d="M164.835 125.43C165.022 124.6 165.022 123.738 164.835 122.908C164.654 123.739 164.654 124.599 164.835 125.43Z" fill="#FF725E"/>
<path d="M162.829 123.979C162.887 124.029 163.132 123.83 163.376 123.527C163.62 123.224 163.769 122.962 163.71 122.912C163.651 122.863 163.407 123.062 163.163 123.364C162.919 123.667 162.77 123.929 162.829 123.979Z" fill="#FF725E"/>
<path d="M162.946 120.146C162.892 120.2 163.05 120.449 163.303 120.707C163.556 120.964 163.809 121.122 163.859 121.073C163.909 121.023 163.755 120.765 163.502 120.512C163.249 120.259 162.996 120.092 162.946 120.146Z" fill="#FF725E"/>
<path d="M165.794 121.136C165.839 121.195 166.074 121.077 166.318 120.878C166.562 120.679 166.716 120.467 166.666 120.426C166.616 120.386 166.381 120.485 166.142 120.684C165.902 120.883 165.744 121.064 165.794 121.136Z" fill="#FF725E"/>
<path d="M165.884 122.813C165.83 122.863 165.97 123.107 166.201 123.36C166.431 123.613 166.653 123.776 166.72 123.726C166.788 123.676 166.635 123.428 166.404 123.175C166.173 122.921 165.961 122.759 165.884 122.813Z" fill="#FF725E"/>
<path d="M74.8286 192.123C75.6459 192.303 76.4928 192.303 77.3101 192.123C76.4928 191.942 75.6459 191.942 74.8286 192.123Z" fill="#FF725E"/>
<path d="M73.5088 188.742C73.3219 189.572 73.3219 190.433 73.5088 191.264C73.6896 190.433 73.6896 189.573 73.5088 188.742Z" fill="#FF725E"/>
<path d="M72.1032 192.041C71.2844 191.86 70.436 191.86 69.6172 192.041C70.4353 192.228 71.2851 192.228 72.1032 192.041Z" fill="#FF725E"/>
<path d="M73.4228 195.422C73.6037 194.591 73.6037 193.731 73.4228 192.9C73.236 193.73 73.236 194.592 73.4228 195.422Z" fill="#FF725E"/>
<path d="M71.4158 193.971C71.4746 194.021 71.7187 193.822 71.9628 193.519C72.2068 193.216 72.3605 192.95 72.3018 192.9C72.243 192.85 71.9989 193.049 71.7548 193.352C71.5108 193.655 71.3526 193.908 71.4158 193.971Z" fill="#FF725E"/>
<path d="M71.529 190.138C71.4747 190.193 71.6375 190.441 71.8906 190.699C72.1437 190.956 72.3923 191.119 72.4465 191.065C72.5008 191.011 72.3381 190.762 72.0849 190.504C71.8318 190.247 71.5832 190.084 71.529 190.138Z" fill="#FF725E"/>
<path d="M74.3765 191.115C74.4262 191.173 74.6613 191.06 74.9008 190.857C75.1404 190.654 75.2986 190.446 75.2489 190.405C75.1992 190.364 74.9686 190.464 74.7246 190.663C74.4805 190.862 74.3268 191.056 74.3765 191.115Z" fill="#FF725E"/>
<path d="M74.4897 192.805C74.4309 192.855 74.5756 193.103 74.8016 193.357C75.0276 193.61 75.2536 193.768 75.3214 193.718C75.3892 193.668 75.2355 193.42 75.005 193.171C74.7744 192.923 74.5439 192.755 74.4897 192.805Z" fill="#FF725E"/>
<path d="M73.0204 77.0163L72.8758 77.3598C72.7523 77.6553 72.5718 77.9236 72.3446 78.1493C72.1173 78.375 71.8478 78.5537 71.5514 78.6751L71.1763 78.8243L71.5333 78.9689C71.8398 79.0908 72.1181 79.2739 72.3512 79.5071C72.5844 79.7402 72.7675 80.0185 72.8893 80.3249L72.9933 80.5735L73.1425 80.2617C73.4171 79.6909 73.9036 79.2498 74.4985 79.0322L74.8194 78.9147L74.399 78.7068C73.8655 78.4491 73.4444 78.0055 73.2148 77.4593L73.0204 77.0163Z" fill="#FF725E"/>
<path d="M57.0739 71.0363L57.0016 71.2081C56.9407 71.3562 56.851 71.4909 56.7378 71.6041C56.6245 71.7174 56.4899 71.8071 56.3417 71.868L56.1519 71.9403L56.3327 72.0126C56.4835 72.0745 56.6204 72.166 56.7353 72.2817C56.8502 72.3973 56.9407 72.5349 57.0016 72.6861L57.0513 72.8082L57.1282 72.6545C57.2647 72.3685 57.5082 72.1477 57.8062 72.0398L57.9689 71.981L57.7565 71.877C57.4902 71.7475 57.2798 71.5259 57.1643 71.2533L57.0739 71.0363Z" fill="#FF725E"/>
<path d="M180.741 46.4792L180.669 46.6509C180.607 46.7987 180.517 46.9327 180.403 47.0452C180.288 47.1577 180.153 47.2465 180.005 47.3063L179.819 47.3832L179.996 47.4555C180.147 47.516 180.284 47.6064 180.399 47.7214C180.514 47.8364 180.604 47.9735 180.665 48.1245L180.719 48.251L180.791 48.0928C180.929 47.808 181.172 47.5877 181.469 47.4781L181.632 47.4193L181.419 47.3199C181.153 47.1886 180.943 46.9655 180.827 46.6916L180.741 46.4792Z" fill="#FF725E"/>
<path d="M173.939 138.502L173.871 138.674C173.744 138.971 173.506 139.207 173.206 139.329L173.021 139.406L173.197 139.478C173.348 139.539 173.485 139.629 173.6 139.744C173.715 139.859 173.806 139.996 173.866 140.147L173.916 140.274L173.993 140.115C174.129 139.83 174.373 139.609 174.671 139.501L174.834 139.442L174.621 139.338C174.353 139.211 174.142 138.989 174.029 138.714L173.939 138.502Z" fill="#FF725E"/>
<path d="M78.6482 178.811L78.5758 178.983C78.514 179.131 78.4235 179.266 78.3094 179.379C78.1954 179.492 78.0601 179.582 77.9114 179.643L77.7261 179.72L77.9024 179.792C78.0537 179.852 78.1912 179.942 78.3062 180.057C78.4213 180.172 78.5115 180.31 78.5713 180.461L78.621 180.588L78.6979 180.429C78.8344 180.143 79.0779 179.923 79.3759 179.815L79.5386 179.756L79.3262 179.652C79.0589 179.524 78.8481 179.302 78.734 179.028L78.6482 178.811Z" fill="#FF725E"/>
<path d="M150.263 28.6478L150.191 28.8195C150.13 28.9681 150.04 29.1028 149.926 29.2154C149.811 29.3281 149.676 29.4164 149.526 29.4749L149.341 29.5518L149.522 29.6241C149.671 29.6844 149.807 29.7738 149.922 29.8871C150.037 30.0004 150.128 30.1353 150.191 30.284L150.24 30.406L150.317 30.2524C150.452 29.9667 150.694 29.7457 150.991 29.6376L151.153 29.5744L150.941 29.4749C150.675 29.3448 150.465 29.1211 150.353 28.8466L150.263 28.6478Z" fill="#FF725E"/>
<path d="M161.061 148.911L160.917 149.255C160.793 149.55 160.613 149.819 160.386 150.044C160.158 150.27 159.889 150.449 159.592 150.57L159.217 150.719L159.574 150.864C159.881 150.986 160.159 151.169 160.392 151.402C160.625 151.635 160.809 151.914 160.93 152.22L161.034 152.469L161.183 152.157C161.457 151.585 161.944 151.144 162.539 150.927L162.865 150.81L162.44 150.602C161.906 150.342 161.485 149.897 161.256 149.35L161.061 148.911Z" fill="#FF725E"/>
</svg>
