<svg width="23" height="25" viewBox="0 0 23 25" fill="none" xmlns="http://www.w3.org/2000/svg">
<g opacity="0.5">
<path d="M11.7027 0.259337C12.0969 0.259337 12.4851 0.284917 12.8462 0.345106C13.2019 0.391711 13.5528 0.469247 13.895 0.576833C14.2381 0.680659 14.5737 0.810065 14.9092 0.972575C15.2357 1.12756 15.5713 1.31716 15.9068 1.5233C16.4741 1.88444 17.0324 2.17635 17.6012 2.40958C18.7209 2.85774 19.9049 3.12442 21.1087 3.19956C21.7196 3.2432 22.3471 3.26878 23.0001 3.26878V9.28767C23.0001 10.4313 22.8541 11.5147 22.5622 12.5469C22.2818 13.5644 21.8834 14.5456 21.375 15.4706C20.8688 16.3942 20.2698 17.2639 19.5874 18.0662C18.8945 18.8867 18.1443 19.6571 17.3424 20.3714C16.5298 21.0879 15.674 21.7537 14.7798 22.3652C13.886 22.9851 12.9832 23.5615 12.0803 24.0851L11.7192 24.3003L11.3581 24.0851C10.43 23.5478 9.52342 22.974 8.64055 22.3652C7.74132 21.7606 6.88509 21.0945 6.07801 20.3714C5.27658 19.6571 4.52685 18.8867 3.83447 18.0662C3.15387 17.2605 2.55223 16.3913 2.03783 15.4706C1.53816 14.5415 1.14012 13.5613 0.850606 12.5469C0.556839 11.4857 0.412003 10.3888 0.420256 9.28767V3.26878C1.07481 3.26878 1.70228 3.2432 2.3132 3.19956C2.91457 3.15779 3.51206 3.07179 4.1008 2.94226C4.67711 2.81285 5.25342 2.64131 5.8207 2.40958C6.40935 2.17201 6.97373 1.87823 7.50599 1.53233C8.16807 1.10198 8.83917 0.784485 9.50125 0.575329C10.2143 0.35674 10.9569 0.250141 11.7027 0.259337ZM21.4864 4.74792C20.3473 4.69265 19.2189 4.50222 18.1248 4.18064C17.0365 3.856 15.9999 3.37824 15.0461 2.76169C14.5514 2.43696 14.0142 2.18226 13.4496 2.00481C12.8857 1.83438 12.2993 1.75017 11.7102 1.75503C11.1167 1.75119 10.526 1.83537 9.95718 2.00481C9.39181 2.17649 8.85524 2.43159 8.36518 2.76169C7.40977 3.3816 6.37049 3.86146 5.279 4.18666C4.21215 4.49663 3.09565 4.68623 1.92498 4.75544V9.29519C1.92498 10.2928 2.05438 11.2468 2.3132 12.1662C2.57686 13.0776 2.94019 13.9571 3.39659 14.7889C3.85847 15.6294 4.40285 16.4217 5.02169 17.1543C5.64916 17.8932 6.31876 18.5808 7.04103 19.2339C7.7633 19.8884 8.52017 20.4903 9.31165 21.0486C10.1107 21.6083 10.9112 22.1154 11.7102 22.5789C12.5283 22.1026 13.326 21.592 14.1012 21.0486C14.8979 20.4921 15.6588 19.886 16.3793 19.2339C17.1016 18.5808 17.7727 17.8932 18.4002 17.1543C19.0191 16.4218 19.5635 15.6294 20.0253 14.7889C20.4797 13.9582 20.8376 13.0782 21.0921 12.1662C21.3588 11.2327 21.4915 10.266 21.4864 9.29519V4.74792Z" fill="#C11239"/>
<path fill-rule="evenodd" clip-rule="evenodd" d="M17.3118 7.34503L16.6497 6.77625L16.0388 6.82891L9.47822 14.5752L7.24371 11.3852L6.64182 11.2829L5.94513 11.7809L5.84131 12.3828L8.71382 16.4847L9.04035 16.6653L9.728 16.7074L10.0801 16.5539L17.3554 7.95444L17.3118 7.34503Z" fill="#C11239"/>
</g>
</svg>
