<svg width="20" height="23" viewBox="0 0 20 23" fill="none" xmlns="http://www.w3.org/2000/svg">
<path d="M10.1464 0L0.854492 4.12973V10.3243C0.854492 16.0543 4.81904 21.4127 10.1464 22.7135C15.4738 21.4127 19.4383 16.0543 19.4383 10.3243V4.12973L10.1464 0ZM17.3734 10.3243C17.3734 12.2343 16.8469 14.0927 15.9487 15.7033L14.4516 14.2063C15.1076 13.2138 15.4002 12.025 15.2798 10.8414C15.1594 9.65783 14.6333 8.55231 13.7909 7.71228C12.8224 6.74528 11.5098 6.20215 10.1412 6.20215C8.77266 6.20215 7.46003 6.74528 6.49158 7.71228C5.52458 8.68073 4.98145 9.99336 4.98145 11.3619C4.98145 12.7305 5.52458 14.0431 6.49158 15.0116C7.33282 15.8519 8.43811 16.3765 9.62107 16.4969C10.804 16.6173 11.9923 16.326 12.9856 15.6723L14.7614 17.4481C13.5328 18.9142 11.9428 20.0395 10.1464 20.5867C5.99601 19.2962 2.91936 14.9909 2.91936 10.3243V5.4719L10.1464 2.26103L17.3734 5.4719V10.3243ZM10.1464 14.4541C8.43256 14.4541 7.04909 13.0706 7.04909 11.3568C7.04909 9.64293 8.43256 8.25947 10.1464 8.25947C11.8602 8.25947 13.2437 9.64293 13.2437 11.3568C13.2437 13.0706 11.8602 14.4541 10.1464 14.4541Z" fill="#3E444F" fill-opacity="0.82"/>
</svg>
